<?xml version="1.0" standalone="no"?>
<!DOCTYPE svg PUBLIC "-//W3C//DTD SVG 1.1//EN" "http://www.w3.org/Graphics/SVG/1.1/DTD/svg11.dtd" >
<svg>
<metadata>
Created by FontForge 20120731 at Sun Sep 14 13:04:32 2014
 By World Wide Web Server
Copyright (c) 2011 by Omnibus-Type (www.omnibus-type.com) with Reserved Font Name "Asap".
</metadata>
<defs>
<font id="Asap-Regular" horiz-adv-x="320" >
  <font-face 
    font-family="Asap"
    font-weight="400"
    font-stretch="normal"
    units-per-em="1000"
    panose-1="2 0 5 6 4 0 0 2 0 4"
    ascent="800"
    descent="-200"
    x-height="523"
    cap-height="702"
    bbox="-76 -212 1000 932"
    underline-thickness="70"
    underline-position="-23"
    unicode-range="U+0020-FB02"
  />
<missing-glyph horiz-adv-x="1000" 
 />
    <glyph glyph-name=".notdef" horiz-adv-x="1000" 
 />
    <glyph glyph-name=".null" horiz-adv-x="0" 
 />
    <glyph glyph-name="nonmarkingreturn" horiz-adv-x="333" 
 />
    <glyph glyph-name="space" unicode=" " horiz-adv-x="240" 
 />
    <glyph glyph-name="exclam" unicode="!" horiz-adv-x="294" 
d="M142 202q-30 0 -30 22v456q0 22 40 22h20q39 0 39 -22l-27 -456q-2 -22 -31 -22h-11zM100 20v66q0 22 40 22h17q40 0 40 -22v-66q0 -22 -40 -22h-17q-40 0 -40 22z" />
    <glyph glyph-name="quotedbl" unicode="&#x22;" horiz-adv-x="319" 
d="M245 484q-3 -12 -22.5 -12t-22.5 12l-22 184v12q0 22 40 22h10q40 0 40 -22v-14zM117 484q-3 -12 -22.5 -12t-22.5 12l-22 184v12q0 22 40 22h10q40 0 40 -22v-14z" />
    <glyph glyph-name="numbersign" unicode="#" horiz-adv-x="534" 
d="M33 196q-20 0 -20 30v17q0 30 20 30h91l26 147h-81q-20 0 -20 30v17q0 30 20 30h94l31 167q1 8 4 12q8 10 40 10h4q28 0 28 -15l-33 -174h119l30 167q1 8 4 12q8 10 40 10h5q28 0 28 -15l-31 -174h68q20 0 20 -30v-17q0 -30 -20 -30h-83l-25 -147h76q20 0 20 -30v-17
q0 -30 -20 -30h-92l-31 -176q-3 -12 -11 -17t-32 -5h-4q-28 0 -28 17l32 181h-118l-32 -176q-2 -8 -4 -12q-7 -10 -39 -10h-4q-28 0 -28 17l32 181h-76zM199 273h118l26 147h-118z" />
    <glyph glyph-name="dollar" unicode="$" horiz-adv-x="496" 
d="M35 67q0 12 13.5 33t21.5 21q3 0 24 -13t58.5 -27t80.5 -15v258q-38 15 -54.5 22t-47 25t-45.5 36q-38 48 -38 118t50 118t135 57v42q0 16 20 16t20 -16v-40q50 -1 104 -17.5t54 -39.5q0 -11 -12.5 -32t-18.5 -21t-22 9q-49 27 -105 29v-233q46 -16 69.5 -27t57.5 -35
q64 -46 64 -137.5t-51 -143t-140 -59.5v-50q0 -16 -20 -16t-20 16v49q-79 2 -138.5 26.5t-59.5 46.5zM164 591.5q-25 -27.5 -25 -70t24 -66.5t70 -43v215q-44 -8 -69 -35.5zM345.5 110q27.5 33 27.5 78.5t-26 72t-74 47.5v-239q45 8 72.5 41z" />
    <glyph glyph-name="percent" unicode="%" horiz-adv-x="765" 
d="M161 2q0 5 4 10l373 675q10 19 40 19h5q24 0 24 -9q0 -2 -4 -10l-373 -675q-10 -19 -40 -19h-5q-24 0 -24 9zM197 381q-137 0 -137 162.5t137 162.5q57 0 97 -36.5t40 -127t-40 -126t-97 -35.5zM197 436q73 0 73 106q0 79 -33 100q-16 10 -39.5 10t-39 -10t-22.5 -28
q-10 -29 -10 -65t3.5 -56.5t20.5 -38.5t47 -18zM568 -5q-137 0 -137 162.5t137 162.5q57 0 97 -36.5t40 -127t-40 -126t-97 -35.5zM499 194q-2 -16 -2 -41.5t3.5 -46t20.5 -38.5t47 -18q73 0 73 106q0 79 -33 100q-16 10 -39.5 10t-39 -10t-22 -28t-8.5 -34z" />
    <glyph glyph-name="ampersand" unicode="&#x26;" horiz-adv-x="624" 
d="M50 212q0 64 38 113t88 62v4q-45 18 -74 56t-29 91q0 82 55.5 125t143.5 43t88 -32q0 -9 -6 -29t-16 -20q-1 0 -21.5 4.5t-48.5 4.5t-53.5 -10.5t-36.5 -28.5q-21 -32 -21 -71.5t34 -77.5t100 -38h118l12 105q2 22 32 22h10q30 0 30 -22v-105h84q20 0 20 -30v-12
q0 -30 -20 -30h-84v-196q0 -74 54 -74q17 0 29 2.5t14 2.5q9 0 15 -18.5t6 -28.5q0 -30 -70.5 -30t-104.5 43q-71 -43 -163 -43q-82 0 -149 46q-74 53 -74 172zM137 204q0 -51 24.5 -83.5t55 -43.5t64.5 -11q63 0 130 37q-2 18 -2 29v204h-122q-73 0 -111.5 -30t-38.5 -102z
" />
    <glyph glyph-name="quotesingle" unicode="'" horiz-adv-x="183" 
d="M117 484q-3 -12 -22.5 -12t-22.5 12l-22 184v12q0 22 40 22h10q40 0 40 -22v-14z" />
    <glyph glyph-name="parenleft" unicode="(" horiz-adv-x="301" 
d="M55 286q0 151 49.5 280t134.5 207q10 10 20.5 10t20.5 -7.5t10 -17.5t-9 -22q-68 -80 -106.5 -197.5t-38.5 -252t38.5 -252t105.5 -198.5q9 -10 9 -19t-9 -19t-19.5 -10t-21.5 11q-85 78 -134.5 207t-49.5 280z" />
    <glyph glyph-name="parenright" unicode=")" horiz-adv-x="301" 
d="M125 29.5q40 119.5 40 255t-38.5 253t-105.5 198.5q-9 10 -9 19t9 19t19.5 10t21.5 -11q85 -78 134.5 -207t49.5 -280t-49.5 -280t-134.5 -207q-10 -10 -21 -10t-21.5 8.5t-10.5 16t7 16.5q69 80 109 199.5z" />
    <glyph glyph-name="asterisk" unicode="*" horiz-adv-x="373" 
d="M108 423q-8 -9 -15 -9t-14.5 5.5t-7.5 13.5t5 14l71 99l-98 32q-14 4 -14 15t5.5 17.5t12 6.5t9.5 -1l99 -32v105q0 20 20 20t20 -20v-105l99 32q3 1 9.5 1t12 -6.5t5.5 -17.5t-14 -15l-99 -32l72 -99q5 -8 5 -14t-7.5 -12.5t-15.5 -6.5t-14 9l-73 101z" />
    <glyph glyph-name="plus" unicode="+" horiz-adv-x="560" 
d="M68 197q-11 0 -15.5 5.5t-4.5 20.5v7q0 34 20 34h179v179q0 20 30 20h7q30 0 30 -20v-179h178q20 0 20 -30v-7q0 -30 -20 -30h-178v-179q0 -20 -30 -20h-7q-30 0 -30 20v179h-179z" />
    <glyph glyph-name="comma" unicode="," horiz-adv-x="198" 
d="M55 76q0 32 40 32h9q40 0 40 -28q0 -81 -36.5 -138.5t-66 -57.5t-29.5 15q0 6 9 24q34 68 34 153z" />
    <glyph glyph-name="hyphen" unicode="-" 
d="M64 230q-20 0 -20 30v10q0 30 20 30h189q20 0 20 -30v-10q0 -30 -20 -30h-189z" />
    <glyph glyph-name="period" unicode="." horiz-adv-x="198" 
d="M51 20v66q0 22 40 22h17q40 0 40 -22v-66q0 -22 -40 -22h-17q-40 0 -40 22z" />
    <glyph glyph-name="slash" unicode="/" horiz-adv-x="370" 
d="M338 703h4q24 0 24 -20q0 -7 -3 -15l-310 -721q-10 -23 -33 -23h-4q-26 0 -26 20q0 8 3 15l310 721q10 23 35 23z" />
    <glyph glyph-name="zero" unicode="0" horiz-adv-x="535" 
d="M429.5 84q-65.5 -90 -163 -90t-162.5 90t-65 266t65 266t162.5 90t163 -90t65.5 -266t-65.5 -266zM165 135q41 -69 101.5 -69t102 69t41.5 215t-41.5 215t-102 69t-101.5 -69t-41 -215t41 -215z" />
    <glyph glyph-name="one" unicode="1" horiz-adv-x="535" 
d="M43 30v12q0 30 20 30h174v539l-177 -30q-9 0 -14.5 17t-5.5 32.5t18 20.5l232 51q12 0 21.5 -6t9.5 -15v-609h148q20 0 20 -30v-12q0 -30 -20 -30h-406q-20 0 -20 30z" />
    <glyph glyph-name="two" unicode="2" horiz-adv-x="535" 
d="M57 14q-6 14 -6 28.5t4 18.5q43 54 155 193.5t141.5 184.5t29.5 92t-33.5 75t-82.5 28t-82.5 -13t-52.5 -25.5t-25 -12.5t-18.5 19.5t-12.5 30.5q0 29 63.5 51t116.5 22q98 0 155.5 -45.5t57.5 -124.5q0 -50 -18.5 -91.5t-57 -92.5t-153.5 -192l-73 -89h288q20 0 20 -30
v-11q0 -30 -20 -30h-382q-8 0 -14 14z" />
    <glyph glyph-name="three" unicode="3" horiz-adv-x="535" 
d="M45 51q0 14 13 32t22 18q1 0 53 -17.5t95.5 -17.5t74 11t55 43.5t24.5 83.5q0 72 -38.5 102t-111.5 30h-33q-20 0 -20 30v11q0 30 20 30h29q69 0 101 42t32 84t-27 71.5t-92 29.5q-71 0 -122 -24q-17 -9 -22 -9q-8 0 -20.5 20t-12.5 32q0 21 63 37t116 16q92 0 147 -45
t55 -132q0 -49 -29.5 -85t-73.5 -53v-4q50 -13 88 -62t38 -113t-20.5 -106t-54.5 -66q-66 -46 -148.5 -46t-141.5 18.5t-59 38.5z" />
    <glyph glyph-name="four" unicode="4" horiz-adv-x="535" 
d="M42 167q-8 0 -16 18t-8 30t2 14l329 459q11 14 34 14h16q30 0 30 -22v-441h67q20 0 20 -30v-12q0 -30 -20 -30h-67v-147q0 -22 -30 -22h-23q-30 0 -30 22v147h-304zM346 239v318l-4 2l-225 -320h229z" />
    <glyph glyph-name="five" unicode="5" horiz-adv-x="535" 
d="M47 54q0 14 13 32t22 18q1 0 50 -19t107.5 -19t103.5 38.5t45 107t-46 103.5t-134 35h-85q-16 0 -22 7t-6 23l17 290q1 30 32 30h266q20 0 20 -30v-12q0 -30 -20 -30h-217l-13 -206h52q89 0 161 -44q37 -22 59 -64.5t22 -102.5t-21 -105t-57 -68q-68 -44 -154 -44
t-140.5 19.5t-54.5 40.5z" />
    <glyph glyph-name="six" unicode="6" horiz-adv-x="535" 
d="M51 247q0 82 27.5 157.5t68 128t86.5 92t83.5 58.5t55.5 19t27.5 -20t9.5 -30.5t-8 -13.5q-194 -80 -247 -266q57 33 136.5 33t134.5 -56t55 -147.5t-61.5 -149t-160.5 -57.5t-153 65.5t-54 186.5zM135 239q0 -95 38.5 -133.5t90.5 -38.5t91.5 34.5t39.5 100t-38 98.5
t-98 33t-120 -34q-4 -40 -4 -60z" />
    <glyph glyph-name="seven" unicode="7" horiz-adv-x="535" 
d="M97 16q0 2 4 12l289 600h-315q-20 0 -20 30v12q0 30 20 30h395q6 0 13 -18t7 -28t-2 -16l-296 -624q-8 -16 -40 -16h-12q-43 0 -43 18z" />
    <glyph glyph-name="eight" unicode="8" horiz-adv-x="535" 
d="M51 202q0 73 29 113t82 65q-83 49 -83 153q0 82 53.5 127.5t136.5 45.5t137.5 -45.5t54.5 -127.5q0 -107 -97 -152q57 -26 88.5 -65t31.5 -114q0 -102 -60.5 -155t-156 -53t-156 53t-60.5 155zM377 533q0 51 -30 76t-77.5 25t-77 -25t-29.5 -76q0 -57 40 -85
q30 -20 88 -40q86 50 86 125zM137 202q0 -65 37 -100.5t93 -35.5t93.5 35.5t37.5 100.5q0 44 -20 68q-11 14 -20.5 23t-28.5 18t-30.5 13.5t-35.5 13t-34 12.5q-92 -54 -92 -148z" />
    <glyph glyph-name="nine" unicode="9" horiz-adv-x="535" 
d="M135.5 18q-9.5 20 -9.5 30.5t8 13.5q194 80 247 266q-57 -33 -136.5 -33t-134.5 56t-55 147.5t61.5 149t160.5 57.5t153 -65.5t54 -186.5q0 -82 -27.5 -157.5t-68 -128t-86.5 -92t-83.5 -58.5t-55.5 -19t-27.5 20zM178 400q38 -33 98 -33t120 34q4 40 4 60
q0 95 -38.5 133.5t-90.5 38.5t-91.5 -34.5t-39.5 -100t38 -98.5z" />
    <glyph glyph-name="colon" unicode=":" horiz-adv-x="198" 
d="M91 415q-40 0 -40 22v66q0 22 40 22h17q40 0 40 -22v-66q0 -22 -40 -22h-17zM51 20v66q0 22 40 22h17q40 0 40 -22v-66q0 -22 -40 -22h-17q-40 0 -40 22z" />
    <glyph glyph-name="semicolon" unicode=";" horiz-adv-x="198" 
d="M91 415q-40 0 -40 22v66q0 22 40 22h17q40 0 40 -22v-66q0 -22 -40 -22h-17zM55 76q0 32 40 32h9q40 0 40 -28q0 -81 -36.5 -138.5t-66 -57.5t-29.5 15q0 6 9 24q34 68 34 153z" />
    <glyph glyph-name="less" unicode="&#x3c;" horiz-adv-x="560" 
d="M41 219v17q0 24 25 35l411 174q7 3 15 3q21 0 21 -26v-14q0 -26 -24 -35l-356 -145l356 -146q24 -10 24 -35v-14q0 -26 -21 -26q-8 0 -15 3l-411 174q-25 11 -25 35z" />
    <glyph glyph-name="equal" unicode="=" horiz-adv-x="560" 
d="M78 271q-30 0 -30 30v7q0 30 30 30h404q30 0 30 -30v-7q0 -30 -30 -30h-404zM78 107q-30 0 -30 30v8q0 30 30 30h404q30 0 30 -30v-8q0 -30 -30 -30h-404z" />
    <glyph glyph-name="greater" unicode="&#x3e;" horiz-adv-x="560" 
d="M46 32v14q0 24 24 35l356 146l-356 145q-24 9 -24 35v14q0 26 21 26q7 0 15 -3l411 -174q25 -11 25 -35v-17q0 -24 -25 -35l-411 -174q-8 -3 -15 -3q-21 0 -21 26z" />
    <glyph glyph-name="question" unicode="?" horiz-adv-x="445" 
d="M149 225q0 73 86 159q34 34 49 50.5t30.5 43.5t15.5 50q0 104 -126 104q-38 0 -80 -17t-44 -17q-7 0 -19.5 20t-12.5 31q0 24 56 40.5t116 16.5q96 0 150.5 -48.5t54.5 -119.5q0 -69 -65 -136q-28 -29 -56 -56q-70 -68 -77 -124q-3 -20 -33 -20h-15q-30 0 -30 23zM136 20
v66q0 22 40 22h17q40 0 40 -22v-66q0 -22 -40 -22h-17q-40 0 -40 22z" />
    <glyph glyph-name="at" unicode="@" horiz-adv-x="974" 
d="M84 237q0 197 130 332.5t320 135.5q151 0 242 -89t91 -231.5t-59 -236.5t-151 -94q-45 0 -71 24t-28 59v7q-49 -90 -135 -90q-48 0 -93 36q-24 18 -38 56t-14 90q0 119 58 194t153 75q64 0 111 -47q9 28 14 35q6 9 21 9h6q22 0 22 -21q-33 -308 -33 -332q0 -42 40 -42
q56 0 99.5 82.5t43.5 190.5q0 127 -77 204t-202 77q-167 0 -281.5 -123t-114.5 -301q0 -142 75 -230.5t197 -88.5q58 0 104.5 14.5t49.5 14.5q14 0 14 -23q0 -26 -56.5 -38t-111.5 -12q-145 0 -235.5 100.5t-90.5 262.5zM351 241q0 -126 88 -126q34 0 69 33t60 108
q13 134 19 153q-41 34 -92 34q-144 0 -144 -202z" />
    <glyph glyph-name="A" unicode="A" horiz-adv-x="613" 
d="M12 15q0 5 3 14l237 657q5 16 40 16h29q35 0 40 -16l237 -658q3 -7 3 -13q0 -17 -43 -17h-8q-35 0 -40 16l-59 164h-294l-57 -164q-5 -16 -40 -16h-5q-43 0 -43 17zM185 254h239l-105 298l-13 58l-16 -58z" />
    <glyph glyph-name="B" unicode="B" horiz-adv-x="593" 
d="M97 30v640q0 30 30 30h179q109 0 166.5 -48t57.5 -129q0 -50 -33 -95t-77 -57v-4q15 -2 44 -18t47.5 -32.5t33.5 -47.5t15 -68q0 -201 -261 -201h-172q-30 0 -30 30zM185 398h116q60 0 99 34t39 86.5t-34 79t-108 26.5h-112v-226zM185 76h146q66 0 102 34.5t36 92.5
t-39.5 88.5t-115.5 30.5h-129v-246z" />
    <glyph glyph-name="C" unicode="C" horiz-adv-x="619" 
d="M57 350q0 356 324 356q72 0 131.5 -20.5t59.5 -41.5q0 -14 -12.5 -36t-21.5 -22q-2 0 -21.5 11t-55.5 22t-78 11q-121 0 -178 -67t-57 -212.5t56.5 -213t174.5 -67.5q45 0 85 12.5t62 25t25 12.5q9 0 22 -22t13 -32q0 -23 -62.5 -47.5t-144.5 -24.5q-165 0 -243.5 86.5
t-78.5 269.5z" />
    <glyph glyph-name="D" unicode="D" horiz-adv-x="695" 
d="M97 30v640q0 30 30 30h202q140 0 224.5 -83.5t84.5 -267t-84.5 -266.5t-224.5 -83h-202q-30 0 -30 30zM185 76h137q101 0 163 66t62 207.5t-62 208t-163 66.5h-137v-548z" />
    <glyph glyph-name="E" unicode="E" horiz-adv-x="546" 
d="M97 30v640q0 30 30 30h349q20 0 20 -30v-16q0 -30 -20 -30h-291v-228h261q20 0 20 -30v-16q0 -30 -20 -30h-261v-244h292q20 0 20 -30v-16q0 -30 -20 -30h-350q-30 0 -30 30z" />
    <glyph glyph-name="F" unicode="F" horiz-adv-x="503" 
d="M97 20v650q0 30 30 30h315q20 0 20 -30v-16q0 -30 -20 -30h-257v-228h239q20 0 20 -30v-16q0 -30 -20 -30h-239v-300q0 -22 -40 -22h-8q-40 0 -40 22z" />
    <glyph glyph-name="G" unicode="G" horiz-adv-x="672" 
d="M57 344q0 362 324 362q72 0 131.5 -20.5t59.5 -41.5q0 -14 -12.5 -36t-21.5 -22q-2 0 -21.5 11t-55.5 22t-78 11q-127 0 -181 -70t-54 -207q0 -283 224 -283q79 0 129 13v202h-117q-20 0 -20 30v16q0 30 20 30h175q30 0 30 -30v-265q0 -72 -223 -72q-309 0 -309 350z" />
    <glyph glyph-name="H" unicode="H" horiz-adv-x="733" 
d="M97 20v660q0 22 40 22h8q40 0 40 -22v-283h362v283q0 22 40 22h8q40 0 40 -22v-660q0 -22 -40 -22h-8q-40 0 -40 22v301h-362v-301q0 -22 -40 -22h-8q-40 0 -40 22z" />
    <glyph glyph-name="I" unicode="I" horiz-adv-x="282" 
d="M97 20v660q0 22 40 22h8q40 0 40 -22v-660q0 -22 -40 -22h-8q-40 0 -40 22z" />
    <glyph glyph-name="J" unicode="J" horiz-adv-x="402" 
d="M6 26q0 10 6 32.5t16 22.5q1 0 22.5 -4.5t40.5 -4.5q74 0 107 29t33 94v485q0 22 40 22h8q40 0 40 -22v-475q0 -211 -212 -211q-101 0 -101 32z" />
    <glyph glyph-name="K" unicode="K" horiz-adv-x="576" 
d="M97 20v660q0 22 40 22h8q40 0 40 -22v-306h4l246 314q11 14 54 14h10q35 0 35 -13q0 -9 -10 -20l-250 -312l303 -329q9 -10 9 -16q0 -14 -44 -14h-12q-43 0 -55 13l-286 322h-4v-313q0 -22 -40 -22h-8q-40 0 -40 22z" />
    <glyph glyph-name="L" unicode="L" horiz-adv-x="484" 
d="M97 30v650q0 22 40 22h8q40 0 40 -22v-604h275q20 0 20 -30v-16q0 -30 -20 -30h-333q-30 0 -30 30z" />
    <glyph glyph-name="M" unicode="M" horiz-adv-x="843" 
d="M90 20v660q0 22 40 22h36q32 0 42 -18l189 -328l26 -63l26 57l189 334q10 18 42 18h33q40 0 40 -22v-660q0 -22 -40 -22h-7q-40 0 -40 22v538l-201 -350q-7 -13 -22 -13h-40q-15 0 -22 13l-204 356v-544q0 -22 -40 -22h-7q-40 0 -40 22z" />
    <glyph glyph-name="N" unicode="N" horiz-adv-x="719" 
d="M90 20v660q0 22 40 22h21q28 0 42 -19l319 -482l30 -56v535q0 22 40 22h7q40 0 40 -22v-660q0 -22 -40 -22h-20q-26 0 -35 14l-330 498l-27 51v-541q0 -22 -40 -22h-7q-40 0 -40 22z" />
    <glyph glyph-name="O" unicode="O" horiz-adv-x="731" 
d="M57 352q0 175 78.5 264.5t229.5 89.5t230 -89.5t79 -264.5t-79 -266.5t-229.5 -91.5t-229.5 91.5t-79 266.5zM365 70q106 0 162 72t56 209.5t-56 208t-162 70.5t-161.5 -70.5t-55.5 -208t55.5 -209.5t161.5 -72z" />
    <glyph glyph-name="P" unicode="P" horiz-adv-x="570" 
d="M85 20v650q0 30 30 30h203q77 0 142 -34q37 -19 59 -60.5t22 -97.5t-17.5 -95.5t-42 -60.5t-56.5 -34q-49 -20 -97 -20h-155v-278q0 -22 -40 -22h-8q-40 0 -40 22zM173 374h156q38 0 75 24q20 13 33 40.5t13 65.5q0 67 -40 93.5t-95 26.5h-142v-250z" />
    <glyph glyph-name="Q" unicode="Q" horiz-adv-x="731" 
d="M57 347q0 176 79 267.5t229.5 91.5t229.5 -92t79 -267q0 -142 -51.5 -229t-149.5 -113v-4l197 -62q14 -5 14 -17t-13.5 -41t-28.5 -29q-8 0 -178 67t-218 87q-189 75 -189 341zM204.5 139q56.5 -72 161 -72t161 72.5t56.5 208t-57 209t-161 73.5t-160.5 -73t-56.5 -209.5
t56.5 -208.5z" />
    <glyph glyph-name="R" unicode="R" horiz-adv-x="610" 
d="M97 20v650q0 30 30 30h168q120 0 180.5 -42.5t60.5 -134.5q0 -123 -115 -169v-4q29 -10 48.5 -39t41.5 -86l78 -197q3 -9 3 -14q0 -16 -42 -16h-10q-34 0 -40 16l-76 196q-22 57 -55 77.5t-94 20.5h-90v-288q0 -22 -40 -22h-8q-40 0 -40 22zM185 384h132q53 0 90.5 36.5
t37.5 91t-36 83.5t-99 29h-125v-240z" />
    <glyph glyph-name="S" unicode="S" horiz-adv-x="500" 
d="M37 67q0 12 13.5 33t21.5 21q3 0 25 -12.5t62 -25.5t91.5 -13t88 33t36.5 84t-33.5 81t-81 47.5t-95.5 37.5t-81.5 62t-33.5 107q0 83 61 133.5t161 50.5q49 0 105 -18t56 -43q0 -11 -12.5 -32t-19.5 -21q-4 0 -21 10q-51 28 -110 28t-94 -28.5t-35 -83.5t65 -86
q28 -13 63 -25.5t69.5 -29t63 -38.5t46.5 -60t18 -88q0 -92 -60 -144.5t-152 -52.5t-154.5 25t-62.5 48z" />
    <glyph glyph-name="T" unicode="T" horiz-adv-x="549" 
d="M232 20v604h-192q-20 0 -20 30v16q0 30 20 30h469q20 0 20 -30v-16q0 -30 -20 -30h-189v-604q0 -22 -40 -22h-8q-40 0 -40 22z" />
    <glyph glyph-name="U" unicode="U" horiz-adv-x="712" 
d="M83 224v456q0 22 40 22h8q40 0 40 -22v-459q0 -66 52.5 -108.5t132.5 -42.5t132.5 42.5t52.5 108.5v459q0 22 40 22h8q40 0 40 -22v-456q0 -109 -71 -169.5t-202.5 -60.5t-202 60.5t-70.5 169.5z" />
    <glyph glyph-name="V" unicode="V" horiz-adv-x="617" 
d="M21 685q0 17 43 17h9q35 0 40 -16l185 -534l11 -52l13 53l185 533q5 16 40 16h6q43 0 43 -17q0 -5 -3 -14l-229 -657q-5 -16 -40 -16h-31q-35 0 -40 16l-229 658q-3 8 -3 13z" />
    <glyph glyph-name="W" unicode="W" horiz-adv-x="882" 
d="M15 685q0 17 43 17h10q36 0 40 -16l127 -492q7 -28 12.5 -60t5.5 -33l145 584q4 17 39 17h16q35 0 39 -17l124 -492l17 -92l145 585q4 16 40 16h6q43 0 43 -17q0 -2 -3 -14l-173 -657q-4 -16 -40 -16h-41q-36 0 -40 16l-109 407l-21 130l-21 -130l-109 -407
q-4 -16 -40 -16h-41q-36 0 -40 16l-171 657q-3 12 -3 14z" />
    <glyph glyph-name="X" unicode="X" horiz-adv-x="611" 
d="M20 15q0 7 8 18l224 332l-200 302q-8 11 -8 18q0 17 46 17h14q33 0 43 -15l160 -241l165 242q9 14 43 14h6q46 0 46 -17q0 -4 -8 -18l-200 -297l225 -337q8 -11 8 -18q0 -17 -46 -17h-16q-33 0 -43 15l-184 275l-186 -276q-9 -14 -43 -14h-8q-46 0 -46 17z" />
    <glyph glyph-name="Y" unicode="Y" horiz-adv-x="559" 
d="M235 20v339l-209 308q-8 11 -8 18q0 17 46 17h11q33 0 43 -15l164 -246l168 247q9 14 50 14t41 -17q0 -4 -8 -18l-210 -311v-336q0 -22 -40 -22h-8q-40 0 -40 22z" />
    <glyph glyph-name="Z" unicode="Z" horiz-adv-x="616" 
d="M62 0q-7 0 -15.5 19t-8.5 30t3 16l410 559h-360q-20 0 -20 34v8q0 34 20 34h458q6 0 14 -19t8 -30t-3 -16l-410 -559h391q20 0 20 -34v-8q0 -34 -20 -34h-487z" />
    <glyph glyph-name="bracketleft" unicode="[" horiz-adv-x="291" 
d="M90 -108v846q0 30 30 30h121q20 0 20 -29v-5q0 -29 -20 -29h-77v-781h77q20 0 20 -29v-4q0 -29 -20 -29h-121q-30 0 -30 30z" />
    <glyph glyph-name="backslash" unicode="\" horiz-adv-x="361" 
d="M5 682q0 20 24 20h4q25 0 35 -23l286 -664q3 -7 3 -15q0 -20 -26 -20h-4q-23 0 -33 23l-286 664q-3 7 -3 15z" />
    <glyph glyph-name="bracketright" unicode="]" horiz-adv-x="291" 
d="M50 -76h77v781h-77q-20 0 -20 29v5q0 29 20 29h121q30 0 30 -30v-846q0 -30 -30 -30h-121q-20 0 -20 29v4q0 29 20 29z" />
    <glyph glyph-name="asciicircum" unicode="^" horiz-adv-x="450" 
d="M80 320q-27 0 -27 21q0 7 3 14l125 309q7 20 34 20h20q25 0 34 -20l125 -309q3 -7 3 -14q0 -21 -27 -21h-4q-26 0 -35 23l-106 261l-107 -261q-10 -23 -34 -23h-4z" />
    <glyph glyph-name="underscore" unicode="_" horiz-adv-x="534" 
d="M-1 -90h536q20 0 20 -20v-8q0 -20 -20 -20h-536q-20 0 -20 20v8q0 20 20 20z" />
    <glyph glyph-name="grave" unicode="`" 
d="M242 615q0 -10 -29 -10t-45 18q-88 101 -91 106.5t-3 9.5q0 13 47.5 13t62.5 -26q58 -101 58 -111z" />
    <glyph glyph-name="a" unicode="a" horiz-adv-x="545" 
d="M381 326v47q0 84 -110 84q-72 0 -133 -31q-21 -11 -23 -11q-10 0 -22.5 20t-12.5 30q0 21 58.5 42.5t140.5 21.5t134 -41.5t52 -115.5v-224q0 -60 5 -87q7 -37 7 -39q0 -12 -19 -17.5t-29.5 -5.5t-14.5 2t-7.5 7t-5.5 9.5t-4 12.5t-3.5 12.5t-3 14t-2.5 12.5
q-68 -75 -168 -75q-77 0 -124 38t-47 117t54.5 118.5t122.5 48t155 10.5zM139 149q0 -82 85 -82q49 0 84.5 18t72.5 51v118q-125 0 -161 -14q-19 -7 -40 -18q-41 -21 -41 -73z" />
    <glyph glyph-name="b" unicode="b" horiz-adv-x="569" 
d="M85 20v710q0 22 40 22h4q40 0 40 -22v-252q66 51 150 51t140 -69.5t56 -192.5v-9q0 -116 -52.5 -190t-140.5 -74t-160 75l-16 -59q-5 -12 -27 -12h-4q-30 0 -30 22zM169 136q63 -69 129 -69q129 0 129 202q0 89 -33.5 137t-97.5 49h-6q-67 0 -121 -45v-274z" />
    <glyph glyph-name="c" unicode="c" horiz-adv-x="485" 
d="M52 264q0 75 20.5 129t55.5 83q66 53 161 53q58 0 104 -14t46 -32q0 -13 -11.5 -33.5t-20.5 -20.5q-1 0 -3.5 1t-4 1.5t-3.5 1.5q-54 24 -109 24q-145 0 -145 -191q0 -106 35.5 -153t119.5 -47q61 0 113 26q3 1 6.5 2.5t4.5 1.5q10 0 22 -19.5t12 -31.5q0 -18 -47 -34.5
t-110 -16.5q-124 0 -185 64t-61 206z" />
    <glyph glyph-name="d" unicode="d" horiz-adv-x="565" 
d="M405 69q-72 -75 -160 -75t-140.5 74t-52.5 190v9q0 123 56 192.5t140 69.5t150 -51v252q0 22 40 22h4q40 0 40 -22v-582q0 -60 5 -87q7 -37 7 -39q0 -12 -19 -17.5t-29.5 -5.5t-14.5 2t-7.5 7t-5.5 9.5t-4 12.5t-3.5 12.5t-3 14t-2.5 12.5zM140 269q0 -202 130 -202
q65 0 128 69v274q-54 45 -121 45h-6q-64 -1 -97.5 -49t-33.5 -137z" />
    <glyph glyph-name="e" unicode="e" horiz-adv-x="539" 
d="M115 59q-60 65 -60 198.5t59 202.5t168 69q212 0 212 -261q0 -9 -12 -25t-21 -16h-316q6 -83 43 -122t111 -39q68 0 125 32q19 10 21 10q10 0 22.5 -20t12.5 -30q0 -20 -54.5 -42t-125.5 -22q-125 0 -185 65zM405 299q0 158 -120 158q-129 0 -140 -158h260z" />
    <glyph glyph-name="f" unicode="f" horiz-adv-x="325" 
d="M108 20v431h-40q-20 0 -20 30v12q0 30 20 30h40v95q0 86 46 114q39 24 83 24q73 0 73 -30q0 -10 -6 -28.5t-15 -18.5q-2 0 -14 2.5t-33.5 2.5t-35.5 -14.5t-14 -59.5v-87h87q20 0 20 -30v-12q0 -30 -20 -30h-87v-431q0 -22 -40 -22h-4q-40 0 -40 22z" />
    <glyph glyph-name="g" unicode="g" horiz-adv-x="546" 
d="M34 -81q0 82 113 122q-64 27 -64 83.5t76 82.5q-44 21 -67.5 60.5t-23.5 88.5q0 75 52.5 124t147.5 49q36 0 66 -6h172q20 0 20 -30v-12q0 -30 -20 -30h-70q33 -40 33 -95q0 -74 -53 -123t-148 -49h-10q-86 -4 -86 -42q0 -21 35 -31.5t84.5 -16.5t99 -17t84.5 -44.5
t35 -87.5q0 -68 -66.5 -112.5t-179 -44.5t-171.5 29.5t-59 101.5zM268.5 256q112.5 0 112.5 100.5t-112.5 100.5t-112.5 -100.5t112.5 -100.5zM121 -72q0 -68 150 -68q67 0 108.5 23t41.5 57q0 27 -23 40q-38 21 -136 34q-26 4 -41 7q-39 -15 -69.5 -39t-30.5 -54z" />
    <glyph glyph-name="h" unicode="h" horiz-adv-x="565" 
d="M92 20v710q0 22 40 22h4q40 0 40 -22v-270q69 69 153 69q57 0 103 -29q25 -17 40.5 -51t15.5 -82v-347q0 -22 -40 -22h-4q-40 0 -40 22v339q0 45 -26 71t-67.5 26t-73 -17.5t-46.5 -34.5l-15 -18v-366q0 -22 -40 -22h-4q-40 0 -40 22z" />
    <glyph glyph-name="i" unicode="i" horiz-adv-x="265" 
d="M127 649q-40 0 -40 22v59q0 22 40 22h12q40 0 40 -22v-59q0 -22 -40 -22h-12zM91 20v483q0 22 40 22h4q40 0 40 -22v-483q0 -22 -40 -22h-4q-40 0 -40 22z" />
    <glyph glyph-name="j" unicode="j" horiz-adv-x="276" 
d="M137 649q-40 0 -40 22v59q0 22 40 22h12q40 0 40 -22v-59q0 -22 -40 -22h-12zM101 -66v569q0 22 40 22h4q40 0 40 -22v-577q0 -77 -39.5 -107.5t-89.5 -30.5q-73 0 -73 30q0 10 6 28.5t15 18.5q2 0 14 -2.5t29 -2.5q54 0 54 74z" />
    <glyph glyph-name="k" unicode="k" horiz-adv-x="521" 
d="M94 20v710q0 22 40 22h4q40 0 40 -22v-447h4l191 228q11 14 53 14h4q35 0 35 -13q0 -9 -10 -20l-186 -220l206 -244q9 -10 9 -16q0 -14 -44 -14h-4q-43 0 -54 13l-200 237h-4v-228q0 -22 -40 -22h-4q-40 0 -40 22z" />
    <glyph glyph-name="l" unicode="l" horiz-adv-x="297" 
d="M82 132v598q0 22 40 22h4q40 0 40 -22v-590q0 -74 54 -74q17 0 29 2.5t14 2.5q9 0 15 -18.5t6 -28.5q0 -30 -73 -30q-50 0 -89.5 30.5t-39.5 107.5z" />
    <glyph glyph-name="m" unicode="m" horiz-adv-x="848" 
d="M85 20v351q0 61 -5 87q-7 36 -7 39q0 12 19 17.5t29.5 5.5t14.5 -2t7.5 -6.5t5.5 -9t4 -12t3.5 -12t3 -13t2.5 -11.5q65 75 152 75q109 0 143 -83q70 83 159 83q57 0 102 -29q25 -17 40 -51t15 -82v-347q0 -22 -40 -22h-4q-40 0 -40 22v339q0 45 -24.5 71t-71.5 26
q-62 0 -123 -69q1 -7 1 -21v-346q0 -22 -40 -22h-4q-40 0 -40 22v339q0 45 -24.5 71t-64 26t-70 -17t-44.5 -35l-15 -17v-367q0 -22 -40 -22h-4q-40 0 -40 22z" />
    <glyph glyph-name="n" unicode="n" horiz-adv-x="557" 
d="M86 20v351q0 61 -5 87q-7 36 -7 39q0 12 19 17.5t29.5 5.5t14.5 -2t7.5 -6.5t5.5 -9t4 -12t3.5 -12t3 -13t2.5 -11.5q67 75 149.5 75t126 -43t43.5 -119v-347q0 -22 -40 -22h-4q-40 0 -40 22v339q0 46 -26.5 71.5t-75.5 25.5q-72 0 -126 -70v-366q0 -22 -40 -22h-4
q-40 0 -40 22z" />
    <glyph glyph-name="o" unicode="o" horiz-adv-x="569" 
d="M114.5 62q-59.5 68 -59.5 197.5t60 199.5t171 70t169.5 -69.5t58.5 -200t-57.5 -198t-170 -67.5t-172 68zM284 66q73 0 108 47.5t35 147.5t-35 148t-108 48t-107 -47.5t-34 -148t34 -148t107 -47.5z" />
    <glyph glyph-name="p" unicode="p" horiz-adv-x="573" 
d="M170 -186q0 -22 -40 -22h-4q-40 0 -40 22v557q0 61 -5 87q-7 36 -7 39q0 12 19 17.5t29.5 5.5t14.5 -2t7.5 -6.5t5.5 -9t4 -12t3.5 -12t3 -13t2.5 -11.5q72 75 160 75t140.5 -74t52.5 -190v-9q0 -123 -56 -192.5t-140 -69.5t-150 51v-231zM291 68h6q64 1 97.5 49
t33.5 141t-32 145.5t-97.5 52.5t-128.5 -69v-274q54 -45 121 -45z" />
    <glyph glyph-name="q" unicode="q" horiz-adv-x="566" 
d="M398 45q-66 -51 -150 -51t-140 69.5t-56 192.5v9q0 116 52.5 190t140.5 74t160 -75l16 59q5 12 27 12h4q30 0 30 -22v-689q0 -22 -40 -22h-4q-40 0 -40 22v231zM277 68q67 0 121 45v274q-63 69 -128 69q-130 0 -130 -202q0 -89 33.5 -137t97.5 -49h6z" />
    <glyph glyph-name="r" unicode="r" horiz-adv-x="366" 
d="M90 20v351q0 61 -5 87q-7 36 -7 39q0 12 19 17.5t29.5 5.5t14.5 -2t7.5 -6.5t5.5 -9t4 -12t3.5 -12t3 -13t2.5 -11.5q53 75 116 75q28 0 43 -11t15 -28t-6 -35.5t-14 -18.5q-4 0 -19.5 5.5t-37 5.5t-44.5 -15.5t-34 -30.5l-12 -15v-366q0 -22 -40 -22h-4q-40 0 -40 22z
" />
    <glyph glyph-name="s" unicode="s" horiz-adv-x="413" 
d="M35 54q0 10 12.5 30t22.5 20q1 0 16 -9.5t43 -19t67.5 -9.5t65 22.5t25.5 61t-22.5 60t-89.5 40.5t-97 48.5t-30 89.5t46 100.5t120 40.5q51 0 91 -13t40 -29q0 -13 -11.5 -33.5t-20.5 -20.5q-1 0 -13 6q-34 18 -76.5 18t-66 -17.5t-23.5 -45.5t17.5 -44t59.5 -29
q94 -29 127.5 -63.5t33.5 -104t-49.5 -114.5t-118.5 -45t-119 20.5t-50 39.5z" />
    <glyph glyph-name="t" unicode="t" horiz-adv-x="342" 
d="M107 132v319h-50q-20 0 -20 30v12q0 30 20 30h50l12 105q2 22 32 22h10q30 0 30 -22v-105h84q20 0 20 -30v-12q0 -30 -20 -30h-84v-311q0 -74 54 -74q17 0 29 2.5t14 2.5q9 0 15 -18.5t6 -28.5q0 -30 -73 -30q-50 0 -89.5 30.5t-39.5 107.5z" />
    <glyph glyph-name="u" unicode="u" horiz-adv-x="557" 
d="M75 156v347q0 22 40 22h4q40 0 40 -22v-339q0 -46 26.5 -71.5t75.5 -25.5q72 0 126 70v366q0 22 40 22h4q40 0 40 -22v-355q0 -60 5 -87q7 -37 7 -39q0 -12 -19 -17.5t-29.5 -5.5t-14.5 2t-7.5 7t-5.5 9.5t-4 12.5t-3.5 12.5t-3 14t-2.5 12.5q-67 -75 -149.5 -75t-126 43
t-43.5 119z" />
    <glyph glyph-name="v" unicode="v" horiz-adv-x="485" 
d="M21 508q0 17 43 17h8q35 0 40 -16l134 -405l134 405q5 16 44.5 16t39.5 -17q0 -5 -3 -14l-161 -480q-5 -16 -40 -16h-35q-35 0 -40 16l-161 481q-3 9 -3 13z" />
    <glyph glyph-name="w" unicode="w" horiz-adv-x="747" 
d="M30 508q0 17 43 17h9q36 0 40 -16l105 -399l104 398q4 17 39 17h11q34 0 39 -17l105 -398l104 399q4 16 45 16t41 -17q0 -5 -3 -14l-134 -480q-4 -16 -40 -16h-33q-35 0 -39 16l-92 364l-94 -364q-4 -16 -40 -16h-33q-36 0 -40 16l-134 481q-3 9 -3 13z" />
    <glyph glyph-name="x" unicode="x" horiz-adv-x="485" 
d="M20 15q0 7 8 18l162 235l-150 222q-8 11 -8 18q0 17 46 17h11q33 0 43 -15l114 -166l115 167q9 14 43 14h4q46 0 46 -17q0 -7 -8 -18l-151 -220l162 -237q8 -11 8 -18q0 -17 -46 -17h-11q-33 0 -43 15l-125 183l-127 -184q-10 -14 -43 -14h-4q-46 0 -46 17z" />
    <glyph glyph-name="y" unicode="y" horiz-adv-x="481" 
d="M18 508q0 17 43 17h8q33 0 40 -16l136 -361l133 361q5 16 44.5 16t39.5 -17q0 -5 -3 -14l-257 -681q-8 -21 -47 -21h-15q-33 0 -33 16q0 3 89 220l-175 467q-3 9 -3 13z" />
    <glyph glyph-name="z" unicode="z" horiz-adv-x="489" 
d="M59 0q-6 0 -14 18t-8 28.5t3 15.5l293 389h-256q-20 0 -20 30v12q0 30 20 30h351q7 0 13.5 -18.5t6.5 -29t-2 -14.5l-292 -389h275q20 0 20 -30v-12q0 -30 -20 -30h-370z" />
    <glyph glyph-name="braceleft" unicode="{" horiz-adv-x="274" 
d="M96 -22v167q0 55 -10 85t-38 42.5t-28 35.5v14q0 23 28 35.5t38 42t10 85.5v167q0 63 25 89.5t53 26.5h50q20 0 20 -29v-4q0 -29 -20 -29h-22q-20 0 -27 -14.5t-7 -46.5v-176q0 -100 -78 -155q12 -6 27.5 -20t33 -50.5t17.5 -82.5v-175q0 -32 7 -47t27 -15h22
q20 0 20 -29v-4q0 -29 -20 -29h-50q-28 0 -53 26t-25 90z" />
    <glyph glyph-name="bar" unicode="|" horiz-adv-x="250" 
d="M96 -118v866q0 22 24 22h10q24 0 24 -22v-866q0 -22 -24 -22h-10q-24 0 -24 22z" />
    <glyph glyph-name="braceright" unicode="}" horiz-adv-x="274" 
d="M50 -76h22q20 0 27 15t7 47v175q0 46 17.5 82.5t33 50.5t27.5 20q-78 55 -78 155v176q0 32 -7 46.5t-27 14.5h-22q-20 0 -20 29v4q0 29 20 29h50q28 0 53 -26.5t25 -89.5v-167q0 -56 10 -85.5t38 -42t28 -35.5v-14q0 -23 -28 -35.5t-38 -42.5t-10 -85v-167q0 -64 -25 -90
t-53 -26h-50q-20 0 -20 29v4q0 29 20 29z" />
    <glyph glyph-name="asciitilde" unicode="~" horiz-adv-x="547" 
d="M86 243q-7 13 -7 20q0 17 40 34.5t83.5 17.5t97.5 -13t73 -13t40 5.5t29 5.5t17 -9t9 -23q0 -18 -40 -35.5t-84 -17.5t-97.5 13t-72.5 13t-40 -5.5t-31 -5.5t-17 13z" />
    <glyph glyph-name="nbspace" unicode="&#xa0;" horiz-adv-x="480" 
 />
    <glyph glyph-name="exclamdown" unicode="&#xa1;" horiz-adv-x="294" 
d="M136 415q-40 0 -40 22v66q0 22 40 22h17q40 0 40 -22v-66q0 -22 -40 -22h-17zM140 321h11q30 0 30 -22v-456q0 -22 -40 -22h-20q-39 0 -39 22l27 456q2 22 31 22z" />
    <glyph glyph-name="cent" unicode="&#xa2;" horiz-adv-x="486" 
d="M55 264q0 71 18 123.5t49 80.5q60 56 147 60v39q0 16 20 16t20 -16v-39q50 -2 87.5 -15.5t37.5 -29.5q0 -13 -11.5 -33.5t-20.5 -20.5q-1 0 -13 5q-40 19 -80 22v-390q48 4 91 24q14 6 16 6q10 0 22 -19.5t12 -31.5q0 -17 -42 -33t-99 -18v-53q0 -16 -20 -16t-20 16v54
q-108 6 -161 70.5t-53 198.5zM144 266q0 -98 29 -145t96 -54v389q-125 -12 -125 -190z" />
    <glyph glyph-name="sterling" unicode="&#xa3;" horiz-adv-x="491" 
d="M33 30v16q0 23 43 40q16 7 29.5 25.5t13.5 47.5v180h-55q-20 0 -20 30v12q0 30 20 30h55v87q0 208 205 208q101 0 101 -32q0 -9 -6 -29t-16 -20q-1 0 -22.5 4.5t-40.5 4.5q-72 0 -104.5 -31.5t-32.5 -99.5v-92h147q20 0 20 -30v-12q0 -30 -20 -30h-147v-90
q0 -124 -39 -163q-7 -7 -18 -14h280q20 0 20 -30v-12q0 -30 -20 -30h-373q-20 0 -20 30z" />
    <glyph glyph-name="currency" unicode="&#xa4;" horiz-adv-x="534" 
d="M134 153q-10 -10 -20.5 -10t-19.5 9t-9 19.5t11 21.5l24 24q-34 45 -34 104.5t34 105.5l-24 23q-10 10 -10 20.5t8 20.5t19 10t21 -12l24 -24q48 35 105 35t104 -34l24 24q10 10 19.5 10t20 -9.5t10.5 -19.5t-11 -21l-24 -24q35 -46 35 -104.5t-35 -104.5l24 -24
q11 -11 11 -20.5t-9.5 -19.5t-20 -10t-20.5 11l-24 24q-47 -33 -104.5 -33t-103.5 33zM263 206q48 0 82.5 34t34.5 82t-34.5 82.5t-82.5 34.5t-82 -34.5t-34 -82.5t34 -82t82 -34z" />
    <glyph glyph-name="yen" unicode="&#xa5;" horiz-adv-x="559" 
d="M68 191q-20 0 -20 30v8q0 30 20 30h167v96h-167q-20 0 -20 30v8q0 30 20 30h123l-165 244q-8 11 -8 18q0 17 46 17h11q33 0 43 -15l164 -246l168 247q9 14 50 14t41 -17q0 -4 -8 -18l-165 -244h124q20 0 20 -30v-8q0 -30 -20 -30h-169v-96h169q20 0 20 -30v-8
q0 -30 -20 -30h-169v-171q0 -22 -40 -22h-8q-40 0 -40 22v171h-167z" />
    <glyph glyph-name="brokenbar" unicode="&#xa6;" horiz-adv-x="250" 
d="M120 403q-24 0 -24 22v323q0 22 24 22h10q24 0 24 -22v-323q0 -22 -24 -22h-10zM96 -118v322q0 22 24 22h10q24 0 24 -22v-322q0 -22 -24 -22h-10q-24 0 -24 22z" />
    <glyph glyph-name="section" unicode="&#xa7;" horiz-adv-x="429" 
d="M74 36q0 13 11.5 33.5t20.5 20.5q1 0 12 -6q35 -18 77 -18t63 17t21 42t-17 40.5t-42.5 22.5t-55 19t-55 26.5t-42.5 46.5t-17 79q0 69 53 115q-38 35 -38 98t47 98.5t105.5 35.5t98.5 -13t40 -29q0 -13 -11.5 -33.5t-20.5 -20.5q-1 0 -12 6q-35 18 -77.5 18t-63 -16.5
t-20.5 -44t23.5 -43.5t57 -26t67 -23.5t57 -48t23.5 -89.5q0 -73 -55 -116q40 -33 40 -97t-46.5 -100t-105 -36t-98.5 13t-40 29zM294 343q0 28 -16.5 47t-34.5 27t-52 18q-56 -16 -56 -76q0 -44 32 -63q25 -16 71 -30q56 13 56 77z" />
    <glyph glyph-name="dieresis" unicode="&#xa8;" 
d="M231 607q-40 0 -40 22v51q0 22 40 22h4q40 0 40 -22v-51q0 -22 -40 -22h-4zM87 607q-40 0 -40 22v51q0 22 40 22h4q40 0 40 -22v-51q0 -22 -40 -22h-4z" />
    <glyph glyph-name="copyright" unicode="&#xa9;" horiz-adv-x="739" 
d="M10 354q0 149 104.5 252.5t254.5 103.5t255 -103.5t105 -252.5t-105.5 -254t-254.5 -105t-254 105t-105 254zM149 572.5q-91 -89.5 -91 -218t91.5 -220t220 -91.5t220 91.5t91.5 220t-91.5 218t-220.5 89.5t-220 -89.5zM193 349q0 213 194 213q43 0 78.5 -12t35.5 -25
q0 -8 -7.5 -21.5t-13.5 -13.5q-1 0 -12 7q-33 20 -80 20q-72 0 -106.5 -40.5t-34.5 -127t34 -127t104 -40.5q49 0 88 22q13 8 15 8q6 0 13.5 -13t7.5 -19q0 -13 -37.5 -28t-86.5 -15q-98 0 -145 52t-47 160z" />
    <glyph glyph-name="ordfeminine" unicode="&#xaa;" horiz-adv-x="319" 
d="M251 517q0 -32 6 -62q0 -11 -27 -11q-12 0 -17 35q-34 -38 -77.5 -38t-67 19t-23.5 49t10.5 47.5t25 26.5t39.5 14q39 8 90 8v24q0 41 -55 41q-36 0 -56 -10t-21 -10q-5 0 -11.5 9.5t-6.5 14.5q0 10 29 21t69.5 11t66.5 -20.5t26 -57.5v-111zM90 518q0 -40 41.5 -40
t78.5 33v59q-90 0 -110 -22q-10 -12 -10 -30z" />
    <glyph glyph-name="guillemotleft" unicode="&#xab;" horiz-adv-x="471" 
d="M216 258q0 12 13 28l130 156q11 12 21.5 12t23 -10t12.5 -20.5t-8 -21.5l-111 -144l111 -145q8 -11 8 -20t-12 -20.5t-23 -11.5t-22 13l-130 156q-13 16 -13 28zM44 258q0 12 13 28l130 156q11 12 21.5 12t23 -10t12.5 -20.5t-8 -21.5l-111 -144l111 -145q8 -11 8 -20
t-12 -20.5t-23 -11.5t-22 13l-130 156q-13 16 -13 28z" />
    <glyph glyph-name="logicalnot" unicode="&#xac;" horiz-adv-x="560" 
d="M58 265q-20 0 -20 30v13q0 30 20 30h434q30 0 30 -30v-209q0 -22 -30 -22h-13q-30 0 -30 22v166h-391z" />
    <glyph glyph-name="uni00AD" unicode="&#xad;" 
d="M64 230q-20 0 -20 30v10q0 30 20 30h189q20 0 20 -30v-10q0 -30 -20 -30h-189z" />
    <glyph glyph-name="registered" unicode="&#xae;" horiz-adv-x="739" 
d="M10 354q0 149 104.5 252.5t254.5 103.5t255 -103.5t105 -252.5t-105.5 -254t-254.5 -105t-254 105t-105 254zM149 572.5q-91 -89.5 -91 -218t91.5 -220t220 -91.5t220 91.5t91.5 220t-91.5 218t-220.5 89.5t-220 -89.5zM249 158v383q0 18 18 18h99q142 0 142 -104
q0 -73 -68 -100v-2q17 -6 28 -23t25 -51l46 -116q2 -8 2 -9q0 -9 -25 -9h-6q-19 0 -23 9l-45 116q-13 34 -32.5 46t-55.5 12h-53v-170q0 -13 -24 -13h-4q-24 0 -24 13zM301 373h78q31 0 53 21.5t22 50.5q0 69 -79 69h-74v-141z" />
    <glyph glyph-name="macron" unicode="&#xaf;" 
d="M47 612q-20 0 -20 30v10q0 30 20 30h223q20 0 20 -30v-10q0 -30 -20 -30h-223z" />
    <glyph glyph-name="degree" unicode="&#xb0;" horiz-adv-x="345" 
d="M170 441q-55 0 -93.5 38.5t-38.5 93.5t38.5 94t93.5 39t94 -39t39 -94t-39 -93.5t-94 -38.5zM111.5 511.5q24.5 -25.5 59 -25.5t59 25.5t24.5 61.5t-25 62t-59 26t-58.5 -26t-24.5 -62t24.5 -61.5z" />
    <glyph glyph-name="plusminus" unicode="&#xb1;" horiz-adv-x="560" 
d="M247 159v168h-169q-30 0 -30 30v7q0 30 30 30h169v169q0 30 30 30h7q30 0 30 -30v-169h168q30 0 30 -30v-7q0 -30 -30 -30h-168v-168q0 -30 -30 -30h-7q-30 0 -30 30zM38 30v13q0 30 30 30h424q30 0 30 -30v-13q0 -30 -30 -30h-424q-30 0 -30 30z" />
    <glyph glyph-name="twosuperior" unicode="&#xb2;" 
d="M47 298q-12 0 -12 25q0 6 2 10q156 195 172 220.5t16 51.5t-19 42t-47.5 16t-47.5 -7.5t-30 -14.5t-14.5 -7t-11 11t-7.5 18q0 17 36.5 29.5t67.5 12.5q57 0 90 -26t33 -68.5t-21 -76.5t-111 -144l-42 -51h166q11 0 11 -17v-7q0 -17 -11 -17h-220z" />
    <glyph glyph-name="threesuperior" unicode="&#xb3;" 
d="M43 326q0 8 7.5 18.5t12.5 10.5q1 0 31 -10t61.5 -10t57 18.5t25.5 61t-22.5 59.5t-64.5 17h-18q-12 0 -12 18v6q0 18 12 18h16q40 0 58.5 24t18.5 48t-15.5 41.5t-46 17.5t-49 -5t-28.5 -9.5t-14 -4.5t-11 11.5t-7 18.5q0 12 36 21.5t67 9.5q54 0 86 -26.5t32 -78.5
t-60 -77v-4q29 -8 51 -35.5t22 -70.5q0 -61 -39.5 -91t-88.5 -30t-83.5 11t-34.5 22z" />
    <glyph glyph-name="acute" unicode="&#xb4;" 
d="M232.5 720q-9.5 -12 -39.5 -46t-45.5 -51.5t-44.5 -17.5t-29 10t58 111q15 26 62.5 26t47.5 -13q0 -7 -9.5 -19z" />
    <glyph glyph-name="mu" unicode="&#xb5;" horiz-adv-x="566" 
d="M169 -186q0 -22 -40 -22h-4q-40 0 -40 22v689q0 22 40 22h4q40 0 40 -22v-339q0 -46 26.5 -71.5t75.5 -25.5q72 0 126 70v366q0 22 40 22h4q40 0 40 -22v-355q0 -60 5 -87q7 -37 7 -39q0 -12 -19 -17.5t-29.5 -5.5t-14.5 2t-7.5 7t-5.5 9.5t-4 12.5t-3.5 12.5t-3 14
t-2.5 12.5q-67 -75 -156 -75q-42 0 -79 15v-195z" />
    <glyph glyph-name="paragraph" unicode="&#xb6;" horiz-adv-x="515" 
d="M243 -151v398q-85 10 -143.5 74.5t-58.5 155t66.5 157t160.5 66.5h213q20 0 20 -24v-14q0 -24 -20 -24h-36v-789q0 -22 -24 -22h-14q-24 0 -24 22v789h-78v-789q0 -22 -24 -22h-14q-24 0 -24 22z" />
    <glyph glyph-name="periodcentered" unicode="&#xb7;" horiz-adv-x="267" 
d="M141 309q-22 0 -36.5 14.5t-14.5 36.5t14.5 37t36.5 15t37 -15t15 -37t-15 -36.5t-37 -14.5z" />
    <glyph glyph-name="cedilla" unicode="&#xb8;" 
d="M190 -49q16 0 32.5 -3.5t34.5 -21t18 -47.5q0 -89 -115 -89q-39 0 -77 12t-38 31q0 26 19 26q5 0 33 -10t50 -10q57 0 57 35q0 19 -16.5 28t-33 14t-16.5 16q0 2 2 12l17 56h43l-14 -49h4z" />
    <glyph glyph-name="onesuperior" unicode="&#xb9;" horiz-adv-x="217" 
d="M148 297q-21 0 -21 14v338l-74 -16q-12 0 -12 30q0 8 10 11l106 28q18 0 18 -12v-379q0 -14 -22 -14h-5z" />
    <glyph glyph-name="ordmasculine" unicode="&#xba;" horiz-adv-x="337" 
d="M253.5 474.5q-28.5 -33.5 -84 -33.5t-85 33.5t-29.5 98t30 99t84.5 34.5t83.5 -34.5t29 -99t-28.5 -98zM168.5 477q70.5 0 70.5 96.5t-70.5 96.5t-70.5 -96.5t70.5 -96.5z" />
    <glyph glyph-name="guillemotright" unicode="&#xbb;" horiz-adv-x="471" 
d="M238 72.5q-12 11.5 -12 20.5t8 20l111 145l-111 144q-8 11 -8 21.5t12.5 20.5t23 10t21.5 -12l130 -156q13 -16 13 -28t-13 -28l-130 -156q-11 -13 -22 -13t-23 11.5zM89 61q-11 0 -23 11.5t-12 20.5t8 20l111 145l-111 144q-8 11 -8 21.5t12.5 20.5t23 10t21.5 -12
l130 -156q13 -16 13 -28t-13 -28l-130 -156q-11 -13 -22 -13z" />
    <glyph glyph-name="onequarter" unicode="&#xbc;" horiz-adv-x="671" 
d="M104 -2q-14 0 -14 6t4 11l406 671q10 17 30 17h13q14 0 14 -7q0 -2 -4 -10l-406 -671q-10 -17 -30 -17h-13zM148 297q-21 0 -21 14v338l-74 -16q-12 0 -12 30q0 8 10 11l106 28q18 0 18 -12v-379q0 -14 -22 -14h-5zM346 97.5q-5 10.5 -5 17.5t1 9l190 272q6 8 20 8h9
q17 0 17 -13v-262h39q11 0 11 -17v-7q0 -18 -11 -18h-39v-76q0 -13 -17 -13h-13q-18 0 -18 13v76h-175q-4 0 -9 10.5zM530 129v131l2 62l-3 2l-131 -195h132z" />
    <glyph glyph-name="onehalf" unicode="&#xbd;" horiz-adv-x="746" 
d="M104 -2q-14 0 -14 6t4 11l406 671q10 17 30 17h13q14 0 14 -7q0 -2 -4 -10l-406 -671q-10 -17 -30 -17h-13zM148 297q-21 0 -21 14v338l-74 -16q-12 0 -12 30q0 8 10 11l106 28q18 0 18 -12v-379q0 -14 -22 -14h-5zM446 25q0 6 2 10q156 195 172 220t16 51.5t-19 42.5
t-47.5 16t-47.5 -7.5t-30 -14.5t-14.5 -7t-11 11t-7.5 18q0 17 36.5 29.5t67.5 12.5q57 0 90 -26t33 -68.5t-21 -76.5t-111 -144l-42 -51h166q11 0 11 -17v-7q0 -17 -11 -17h-220q-12 0 -12 25z" />
    <glyph glyph-name="threequarters" unicode="&#xbe;" horiz-adv-x="738" 
d="M39 326q0 8 7.5 18.5t12.5 10.5q1 0 31 -10t61.5 -10t57 18.5t25.5 61t-22.5 59.5t-64.5 17h-18q-12 0 -12 18v6q0 18 12 18h16q40 0 58.5 24t18.5 48t-15.5 41.5t-46 17.5t-49 -5t-28.5 -9.5t-14 -4.5t-11 11.5t-7 18.5q0 12 36 21.5t67 9.5q54 0 86 -26.5t32 -78.5
t-60 -77v-4q29 -8 51 -35.5t22 -70.5q0 -61 -39.5 -91t-88.5 -30t-83.5 11t-34.5 22zM169 -2q-14 0 -14 6t4 11l406 671q10 17 30 17h13q14 0 14 -7q0 -2 -4 -10l-406 -671q-10 -17 -30 -17h-13zM415 97.5q-5 10.5 -5 17.5t1 9l190 272q6 8 20 8h9q17 0 17 -13v-262h39
q11 0 11 -17v-7q0 -18 -11 -18h-39v-76q0 -13 -17 -13h-13q-18 0 -18 13v76h-175q-4 0 -9 10.5zM599 129v131l2 62l-3 2l-131 -195h132z" />
    <glyph glyph-name="questiondown" unicode="&#xbf;" horiz-adv-x="425" 
d="M253 415q-40 0 -40 22v66q0 22 40 22h17q40 0 40 -22v-66q0 -22 -40 -22h-17zM84 122l56 56q70 67 77 123q3 20 33 20h15q30 0 30 -23q0 -73 -86 -159q-34 -34 -49 -50.5t-30.5 -43.5t-15.5 -50q0 -104 126 -104q38 0 80 17t44 17q7 0 19.5 -20t12.5 -31q0 -24 -56 -40.5
t-116 -16.5q-96 0 -150.5 48.5t-54.5 118.5t65 138z" />
    <glyph glyph-name="Agrave" unicode="&#xc0;" horiz-adv-x="613" 
d="M12 15q0 5 3 14l237 657q5 16 40 16h29q35 0 40 -16l237 -658q3 -7 3 -13q0 -17 -43 -17h-8q-35 0 -40 16l-59 164h-294l-57 -164q-5 -16 -40 -16h-5q-43 0 -43 17zM185 254h239l-105 298l-13 58l-16 -58zM374 795q0 -10 -29 -10t-45 18q-88 101 -91 106.5t-3 9.5
q0 13 47.5 13t62.5 -26q58 -101 58 -111z" />
    <glyph glyph-name="Aacute" unicode="&#xc1;" horiz-adv-x="613" 
d="M12 15q0 5 3 14l237 657q5 16 40 16h29q35 0 40 -16l237 -658q3 -7 3 -13q0 -17 -43 -17h-8q-35 0 -40 16l-59 164h-294l-57 -164q-5 -16 -40 -16h-5q-43 0 -43 17zM185 254h239l-105 298l-13 58l-16 -58zM409.5 900q-9.5 -12 -39.5 -46t-46 -51.5t-44.5 -17.5t-28.5 10
t58 111q15 26 62.5 26t47.5 -13q0 -7 -9.5 -19z" />
    <glyph glyph-name="Acircumflex" unicode="&#xc2;" horiz-adv-x="613" 
d="M12 15q0 5 3 14l237 657q5 16 40 16h29q35 0 40 -16l237 -658q3 -7 3 -13q0 -17 -43 -17h-8q-35 0 -40 16l-59 164h-294l-57 -164q-5 -16 -40 -16h-5q-43 0 -43 17zM185 254h239l-105 298l-13 58l-16 -58zM245 777q-14 -13 -36.5 -13t-22.5 14q0 8 6 18l56 88
q15 22 46 22h25q31 0 46 -22l57 -88q6 -9 6 -17q0 -15 -22.5 -15t-36.5 13l-63 74z" />
    <glyph glyph-name="Atilde" unicode="&#xc3;" horiz-adv-x="613" 
d="M12 15q0 5 3 14l237 657q5 16 40 16h29q35 0 40 -16l237 -658q3 -7 3 -13q0 -17 -43 -17h-8q-35 0 -40 16l-59 164h-294l-57 -164q-5 -16 -40 -16h-5q-43 0 -43 17zM185 254h239l-105 298l-13 58l-16 -58zM289 805q-41 10 -54 10t-30 -6.5t-28 -6.5t-20 10.5t-9 19.5
q0 19 34 37.5t68 18.5t74.5 -10t56.5 -10t31.5 6.5t25 6.5t19 -11t9.5 -19q0 -19 -34 -37.5t-68 -18.5t-75 10z" />
    <glyph glyph-name="Adieresis" unicode="&#xc4;" horiz-adv-x="613" 
d="M12 15q0 5 3 14l237 657q5 16 40 16h29q35 0 40 -16l237 -658q3 -7 3 -13q0 -17 -43 -17h-8q-35 0 -40 16l-59 164h-294l-57 -164q-5 -16 -40 -16h-5q-43 0 -43 17zM185 254h239l-105 298l-13 58l-16 -58zM377 787q-40 0 -40 22v51q0 22 40 22h4q40 0 40 -22v-51
q0 -22 -40 -22h-4zM233 787q-40 0 -40 22v51q0 22 40 22h4q40 0 40 -22v-51q0 -22 -40 -22h-4z" />
    <glyph glyph-name="Aring" unicode="&#xc5;" horiz-adv-x="613" 
d="M12 15q0 5 3 14l237 657q5 16 40 16h29q35 0 40 -16l237 -658q3 -7 3 -13q0 -17 -43 -17h-8q-35 0 -40 16l-59 164h-294l-57 -164q-5 -16 -40 -16h-5q-43 0 -43 17zM185 254h239l-105 298l-13 58l-16 -58zM307 744q-35 0 -59.5 24.5t-24.5 59.5t24.5 60t59.5 25t60 -25
t25 -60t-25 -59.5t-60 -24.5zM307 779q21 0 35.5 14t14.5 35t-14.5 35.5t-35.5 14.5t-35 -14.5t-14 -35.5t14 -35t35 -14z" />
    <glyph glyph-name="AE" unicode="&#xc6;" horiz-adv-x="915" 
d="M-11 15q0 8 4 16l321 642q13 27 43 27h445q20 0 20 -30v-16q0 -30 -20 -30h-362l50 -228h282q20 0 20 -30v-16q0 -30 -20 -30h-266l53 -244h244q20 0 20 -30v-16q0 -30 -20 -30h-287q-30 0 -36 29l-32 149h-295l-80 -164q-9 -16 -40 -16h-5q-39 0 -39 17zM192 253h239
l-64 299l-4 58l-23 -58z" />
    <glyph glyph-name="Ccedilla" unicode="&#xc7;" horiz-adv-x="619" 
d="M57 350q0 356 324 356q72 0 131.5 -20.5t59.5 -41.5q0 -14 -12.5 -36t-21.5 -22q-2 0 -21.5 11t-55.5 22t-78 11q-121 0 -178 -67t-57 -212.5t56.5 -213t174.5 -67.5q45 0 85 12.5t62 25t25 12.5q9 0 22 -22t13 -32q0 -23 -62.5 -47.5t-144.5 -24.5h-10l-12 -43h4
q16 0 32.5 -3.5t34.5 -21t18 -47.5q0 -89 -115 -89q-39 0 -77 12t-38 31q0 26 19 26q5 0 33 -10t50 -10q57 0 57 35q0 19 -16.5 28t-33 14t-16.5 16q0 2 2 12l16 53q-138 12 -204 98.5t-66 254.5z" />
    <glyph glyph-name="Egrave" unicode="&#xc8;" horiz-adv-x="546" 
d="M97 30v640q0 30 30 30h349q20 0 20 -30v-16q0 -30 -20 -30h-291v-228h261q20 0 20 -30v-16q0 -30 -20 -30h-261v-244h292q20 0 20 -30v-16q0 -30 -20 -30h-350q-30 0 -30 30zM365 795q0 -10 -28.5 -10t-45.5 18q-88 101 -91 106.5t-3 9.5q0 13 47.5 13t62.5 -26
q58 -101 58 -111z" />
    <glyph glyph-name="Eacute" unicode="&#xc9;" horiz-adv-x="546" 
d="M97 30v640q0 30 30 30h349q20 0 20 -30v-16q0 -30 -20 -30h-291v-228h261q20 0 20 -30v-16q0 -30 -20 -30h-261v-244h292q20 0 20 -30v-16q0 -30 -20 -30h-350q-30 0 -30 30zM400.5 900q-9.5 -12 -39.5 -46t-45.5 -51.5t-44.5 -17.5t-29 10t58 111q15 26 62.5 26
t47.5 -13q0 -7 -9.5 -19z" />
    <glyph glyph-name="Ecircumflex" unicode="&#xca;" horiz-adv-x="546" 
d="M97 30v640q0 30 30 30h349q20 0 20 -30v-16q0 -30 -20 -30h-291v-228h261q20 0 20 -30v-16q0 -30 -20 -30h-261v-244h292q20 0 20 -30v-16q0 -30 -20 -30h-350q-30 0 -30 30zM236 777q-14 -13 -36.5 -13t-22.5 14q0 8 6 18l56 88q15 22 46 22h25q31 0 46 -22l57 -88
q6 -9 6 -17q0 -15 -22.5 -15t-36.5 13l-63 74z" />
    <glyph glyph-name="Edieresis" unicode="&#xcb;" horiz-adv-x="546" 
d="M97 30v640q0 30 30 30h349q20 0 20 -30v-16q0 -30 -20 -30h-291v-228h261q20 0 20 -30v-16q0 -30 -20 -30h-261v-244h292q20 0 20 -30v-16q0 -30 -20 -30h-350q-30 0 -30 30zM368 787q-40 0 -40 22v51q0 22 40 22h4q40 0 40 -22v-51q0 -22 -40 -22h-4zM224 787
q-40 0 -40 22v51q0 22 40 22h4q40 0 40 -22v-51q0 -22 -40 -22h-4z" />
    <glyph glyph-name="Igrave" unicode="&#xcc;" horiz-adv-x="282" 
d="M97 20v660q0 22 40 22h8q40 0 40 -22v-660q0 -22 -40 -22h-8q-40 0 -40 22zM208 795q0 -10 -29 -10t-45 18q-88 101 -91 106.5t-3 9.5q0 13 47.5 13t62.5 -26q58 -101 58 -111z" />
    <glyph glyph-name="Iacute" unicode="&#xcd;" horiz-adv-x="282" 
d="M97 20v660q0 22 40 22h8q40 0 40 -22v-660q0 -22 -40 -22h-8q-40 0 -40 22zM243.5 900q-9.5 -12 -39.5 -46t-45.5 -51.5t-44.5 -17.5t-29 10t58 111q15 26 62.5 26t47.5 -13q0 -7 -9.5 -19z" />
    <glyph glyph-name="Icircumflex" unicode="&#xce;" horiz-adv-x="282" 
d="M97 20v660q0 22 40 22h8q40 0 40 -22v-660q0 -22 -40 -22h-8q-40 0 -40 22zM79 777q-14 -13 -36.5 -13t-22.5 14q0 8 6 18l56 88q15 22 46 22h25q31 0 46 -22l57 -88q6 -9 6 -17q0 -15 -22.5 -15t-36.5 13l-63 74z" />
    <glyph glyph-name="Idieresis" unicode="&#xcf;" horiz-adv-x="282" 
d="M97 20v660q0 22 40 22h8q40 0 40 -22v-660q0 -22 -40 -22h-8q-40 0 -40 22zM211 787q-40 0 -40 22v51q0 22 40 22h4q40 0 40 -22v-51q0 -22 -40 -22h-4zM67 787q-40 0 -40 22v51q0 22 40 22h4q40 0 40 -22v-51q0 -22 -40 -22h-4z" />
    <glyph glyph-name="Eth" unicode="&#xd0;" horiz-adv-x="696" 
d="M85 30v290h-65q-20 0 -20 30v16q0 30 20 30h65v274q0 30 30 30h215q134 0 220 -78q91 -83 91 -272q0 -267 -189 -332q-55 -18 -122 -18h-215q-30 0 -30 30zM173 76h150q102 0 164.5 66t62.5 207.5t-62.5 208t-164.5 66.5h-150v-228h110q20 0 20 -30v-16q0 -30 -20 -30
h-110v-244z" />
    <glyph glyph-name="Ntilde" unicode="&#xd1;" horiz-adv-x="719" 
d="M90 20v660q0 22 40 22h21q28 0 42 -19l319 -482l30 -56v535q0 22 40 22h7q40 0 40 -22v-660q0 -22 -40 -22h-20q-26 0 -35 14l-330 498l-27 51v-541q0 -22 -40 -22h-7q-40 0 -40 22zM341 805q-41 10 -54 10t-30 -6.5t-28 -6.5t-20 10.5t-9 19.5q0 19 34 37.5t68 18.5
t74.5 -10t56.5 -10t31.5 6.5t25 6.5t19 -11t9.5 -19q0 -19 -34 -37.5t-68 -18.5t-75 10z" />
    <glyph glyph-name="Ograve" unicode="&#xd2;" horiz-adv-x="731" 
d="M57 352q0 175 78.5 264.5t229.5 89.5t230 -89.5t79 -264.5t-79 -266.5t-229.5 -91.5t-229.5 91.5t-79 266.5zM365 70q106 0 162 72t56 209.5t-56 208t-162 70.5t-161.5 -70.5t-55.5 -208t55.5 -209.5t161.5 -72zM432 795q0 -10 -29 -10t-45 18q-88 101 -91 106.5t-3 9.5
q0 13 47.5 13t62.5 -26q58 -101 58 -111z" />
    <glyph glyph-name="Oacute" unicode="&#xd3;" horiz-adv-x="731" 
d="M57 352q0 175 78.5 264.5t229.5 89.5t230 -89.5t79 -264.5t-79 -266.5t-229.5 -91.5t-229.5 91.5t-79 266.5zM365 70q106 0 162 72t56 209.5t-56 208t-162 70.5t-161.5 -70.5t-55.5 -208t55.5 -209.5t161.5 -72zM467.5 900q-9.5 -12 -39.5 -46t-46 -51.5t-44.5 -17.5
t-28.5 10t58 111q15 26 62.5 26t47.5 -13q0 -7 -9.5 -19z" />
    <glyph glyph-name="Ocircumflex" unicode="&#xd4;" horiz-adv-x="731" 
d="M57 352q0 175 78.5 264.5t229.5 89.5t230 -89.5t79 -264.5t-79 -266.5t-229.5 -91.5t-229.5 91.5t-79 266.5zM365 70q106 0 162 72t56 209.5t-56 208t-162 70.5t-161.5 -70.5t-55.5 -208t55.5 -209.5t161.5 -72zM303 777q-14 -13 -36.5 -13t-22.5 14q0 8 6 18l56 88
q15 22 46 22h25q31 0 46 -22l57 -88q6 -9 6 -17q0 -15 -22.5 -15t-36.5 13l-63 74z" />
    <glyph glyph-name="Otilde" unicode="&#xd5;" horiz-adv-x="731" 
d="M57 352q0 175 78.5 264.5t229.5 89.5t230 -89.5t79 -264.5t-79 -266.5t-229.5 -91.5t-229.5 91.5t-79 266.5zM365 70q106 0 162 72t56 209.5t-56 208t-162 70.5t-161.5 -70.5t-55.5 -208t55.5 -209.5t161.5 -72zM347 805q-41 10 -54 10t-30 -6.5t-28 -6.5t-20 10.5
t-9 19.5q0 19 34 37.5t68 18.5t74.5 -10t56.5 -10t31.5 6.5t25 6.5t19 -11t9.5 -19q0 -19 -34 -37.5t-68 -18.5t-75 10z" />
    <glyph glyph-name="Odieresis" unicode="&#xd6;" horiz-adv-x="731" 
d="M57 352q0 175 78.5 264.5t229.5 89.5t230 -89.5t79 -264.5t-79 -266.5t-229.5 -91.5t-229.5 91.5t-79 266.5zM365 70q106 0 162 72t56 209.5t-56 208t-162 70.5t-161.5 -70.5t-55.5 -208t55.5 -209.5t161.5 -72zM435 787q-40 0 -40 22v51q0 22 40 22h4q40 0 40 -22v-51
q0 -22 -40 -22h-4zM291 787q-40 0 -40 22v51q0 22 40 22h4q40 0 40 -22v-51q0 -22 -40 -22h-4z" />
    <glyph glyph-name="multiply" unicode="&#xd7;" horiz-adv-x="560" 
d="M54 42q0 6 8 14l171 172l-171 171q-8 8 -8 14t8 14l19 20q7 7 14 7t14 -7l171 -172l171 172q7 7 14 7t14 -7l19 -20q7 -7 7 -14t-7 -14l-171 -171l171 -172q7 -7 7 -14t-7 -14l-19 -20q-8 -8 -14 -8t-14 8l-171 173l-171 -173q-8 -8 -14 -8t-14 8l-19 20q-8 8 -8 14z" />
    <glyph glyph-name="Oslash" unicode="&#xd8;" horiz-adv-x="731" 
d="M41.5 8q-7.5 7 -7.5 13.5t6 14.5l73 80q-56 89 -56 236q0 175 78.5 264.5t221 89.5t221.5 -73l55 61q7 8 14 8t14.5 -7t7.5 -13.5t-6 -13.5l-58 -64q69 -90 69 -258.5t-79 -260t-229.5 -91.5t-228.5 90l-67 -74q-8 -9 -14.5 -9t-14 7zM519 568q-54 62 -157 62
t-158.5 -70.5t-55.5 -207.5q0 -98 29 -165zM197 151q54 -81 164 -81t166 72t56 198.5t-40 195.5z" />
    <glyph glyph-name="Ugrave" unicode="&#xd9;" horiz-adv-x="712" 
d="M83 224v456q0 22 40 22h8q40 0 40 -22v-459q0 -66 52.5 -108.5t132.5 -42.5t132.5 42.5t52.5 108.5v459q0 22 40 22h8q40 0 40 -22v-456q0 -109 -71 -169.5t-202.5 -60.5t-202 60.5t-70.5 169.5zM423 795q0 -10 -28.5 -10t-45.5 18q-88 101 -91 106.5t-3 9.5
q0 13 47.5 13t62.5 -26q58 -101 58 -111z" />
    <glyph glyph-name="Uacute" unicode="&#xda;" horiz-adv-x="712" 
d="M83 224v456q0 22 40 22h8q40 0 40 -22v-459q0 -66 52.5 -108.5t132.5 -42.5t132.5 42.5t52.5 108.5v459q0 22 40 22h8q40 0 40 -22v-456q0 -109 -71 -169.5t-202.5 -60.5t-202 60.5t-70.5 169.5zM458.5 900q-9.5 -12 -39.5 -46t-45.5 -51.5t-44.5 -17.5t-29 10t58 111
q15 26 62.5 26t47.5 -13q0 -7 -9.5 -19z" />
    <glyph glyph-name="Ucircumflex" unicode="&#xdb;" horiz-adv-x="712" 
d="M83 224v456q0 22 40 22h8q40 0 40 -22v-459q0 -66 52.5 -108.5t132.5 -42.5t132.5 42.5t52.5 108.5v459q0 22 40 22h8q40 0 40 -22v-456q0 -109 -71 -169.5t-202.5 -60.5t-202 60.5t-70.5 169.5zM294 777q-14 -13 -36.5 -13t-22.5 14q0 8 6 18l56 88q15 22 46 22h25
q31 0 46 -22l57 -88q6 -9 6 -17q0 -15 -22.5 -15t-36.5 13l-63 74z" />
    <glyph glyph-name="Udieresis" unicode="&#xdc;" horiz-adv-x="712" 
d="M83 224v456q0 22 40 22h8q40 0 40 -22v-459q0 -66 52.5 -108.5t132.5 -42.5t132.5 42.5t52.5 108.5v459q0 22 40 22h8q40 0 40 -22v-456q0 -109 -71 -169.5t-202.5 -60.5t-202 60.5t-70.5 169.5zM426 787q-40 0 -40 22v51q0 22 40 22h4q40 0 40 -22v-51q0 -22 -40 -22h-4
zM282 787q-40 0 -40 22v51q0 22 40 22h4q40 0 40 -22v-51q0 -22 -40 -22h-4z" />
    <glyph glyph-name="Yacute" unicode="&#xdd;" horiz-adv-x="559" 
d="M235 20v339l-209 308q-8 11 -8 18q0 17 46 17h11q33 0 43 -15l164 -246l168 247q9 14 50 14t41 -17q0 -4 -8 -18l-210 -311v-336q0 -22 -40 -22h-8q-40 0 -40 22zM381.5 900q-9.5 -12 -39.5 -46t-46 -51.5t-44.5 -17.5t-28.5 10t58 111q15 26 62.5 26t47.5 -13
q0 -7 -9.5 -19z" />
    <glyph glyph-name="Thorn" unicode="&#xde;" horiz-adv-x="567" 
d="M85 20v660q0 22 40 22h8q40 0 40 -22v-102h145q77 0 142 -34q37 -19 59 -60.5t22 -97.5t-17.5 -95.5t-42 -60.5t-56.5 -34q-49 -20 -97 -20h-155v-156q0 -22 -40 -22h-8q-40 0 -40 22zM173 252h156q38 0 75 24q20 13 33 40.5t13 65.5q0 67 -40 93.5t-95 26.5h-142v-250z
" />
    <glyph glyph-name="germandbls" unicode="&#xdf;" horiz-adv-x="554" 
d="M90 20v501q0 82 54 133.5t143.5 51.5t143.5 -40.5t54 -129.5q0 -45 -28.5 -88.5t-73.5 -62.5q62 -14 96.5 -63t34.5 -116q0 -97 -61 -151.5t-154 -54.5h-32q-20 0 -20 30v12q0 30 20 30h33q54 0 90 36t36 97.5t-36 98t-90 36.5h-33q-20 0 -20 30v12q0 30 20 30h10
q47 0 83 34t36 82q0 106 -111 106q-51 0 -81 -30.5t-30 -82.5v-501q0 -22 -40 -22h-4q-40 0 -40 22z" />
    <glyph glyph-name="agrave" unicode="&#xe0;" horiz-adv-x="545" 
d="M381 326v47q0 84 -110 84q-72 0 -133 -31q-21 -11 -23 -11q-10 0 -22.5 20t-12.5 30q0 21 58.5 42.5t140.5 21.5t134 -41.5t52 -115.5v-224q0 -60 5 -87q7 -37 7 -39q0 -12 -19 -17.5t-29.5 -5.5t-14.5 2t-7.5 7t-5.5 9.5t-4 12.5t-3.5 12.5t-3 14t-2.5 12.5
q-68 -75 -168 -75q-77 0 -124 38t-47 117t54.5 118.5t122.5 48t155 10.5zM139 149q0 -82 85 -82q49 0 84.5 18t72.5 51v118q-125 0 -161 -14q-19 -7 -40 -18q-41 -21 -41 -73zM335 615q0 -10 -28.5 -10t-45.5 18q-88 101 -91 106.5t-3 9.5q0 13 47.5 13t62.5 -26
q58 -101 58 -111z" />
    <glyph glyph-name="aacute" unicode="&#xe1;" horiz-adv-x="545" 
d="M381 326v47q0 84 -110 84q-72 0 -133 -31q-21 -11 -23 -11q-10 0 -22.5 20t-12.5 30q0 21 58.5 42.5t140.5 21.5t134 -41.5t52 -115.5v-224q0 -60 5 -87q7 -37 7 -39q0 -12 -19 -17.5t-29.5 -5.5t-14.5 2t-7.5 7t-5.5 9.5t-4 12.5t-3.5 12.5t-3 14t-2.5 12.5
q-68 -75 -168 -75q-77 0 -124 38t-47 117t54.5 118.5t122.5 48t155 10.5zM139 149q0 -82 85 -82q49 0 84.5 18t72.5 51v118q-125 0 -161 -14q-19 -7 -40 -18q-41 -21 -41 -73zM370.5 720q-9.5 -12 -39.5 -46t-45.5 -51.5t-44.5 -17.5t-29 10t58 111q15 26 62.5 26t47.5 -13
q0 -7 -9.5 -19z" />
    <glyph glyph-name="acircumflex" unicode="&#xe2;" horiz-adv-x="545" 
d="M381 326v47q0 84 -110 84q-72 0 -133 -31q-21 -11 -23 -11q-10 0 -22.5 20t-12.5 30q0 21 58.5 42.5t140.5 21.5t134 -41.5t52 -115.5v-224q0 -60 5 -87q7 -37 7 -39q0 -12 -19 -17.5t-29.5 -5.5t-14.5 2t-7.5 7t-5.5 9.5t-4 12.5t-3.5 12.5t-3 14t-2.5 12.5
q-68 -75 -168 -75q-77 0 -124 38t-47 117t54.5 118.5t122.5 48t155 10.5zM139 149q0 -82 85 -82q49 0 84.5 18t72.5 51v118q-125 0 -161 -14q-19 -7 -40 -18q-41 -21 -41 -73zM206 597q-14 -13 -36.5 -13t-22.5 14q0 8 6 18l56 88q15 22 46 22h25q31 0 46 -22l57 -88
q6 -9 6 -17q0 -15 -22.5 -15t-36.5 13l-63 74z" />
    <glyph glyph-name="atilde" unicode="&#xe3;" horiz-adv-x="545" 
d="M381 326v47q0 84 -110 84q-72 0 -133 -31q-21 -11 -23 -11q-10 0 -22.5 20t-12.5 30q0 21 58.5 42.5t140.5 21.5t134 -41.5t52 -115.5v-224q0 -60 5 -87q7 -37 7 -39q0 -12 -19 -17.5t-29.5 -5.5t-14.5 2t-7.5 7t-5.5 9.5t-4 12.5t-3.5 12.5t-3 14t-2.5 12.5
q-68 -75 -168 -75q-77 0 -124 38t-47 117t54.5 118.5t122.5 48t155 10.5zM139 149q0 -82 85 -82q49 0 84.5 18t72.5 51v118q-125 0 -161 -14q-19 -7 -40 -18q-41 -21 -41 -73zM250 625q-41 10 -54 10t-30 -6.5t-28 -6.5t-20 10.5t-9 19.5q0 19 34 37.5t68 18.5t74.5 -10
t56.5 -10t31.5 6.5t25 6.5t19 -11t9.5 -19q0 -19 -34 -37.5t-68 -18.5t-75 10z" />
    <glyph glyph-name="adieresis" unicode="&#xe4;" horiz-adv-x="545" 
d="M381 326v47q0 84 -110 84q-72 0 -133 -31q-21 -11 -23 -11q-10 0 -22.5 20t-12.5 30q0 21 58.5 42.5t140.5 21.5t134 -41.5t52 -115.5v-224q0 -60 5 -87q7 -37 7 -39q0 -12 -19 -17.5t-29.5 -5.5t-14.5 2t-7.5 7t-5.5 9.5t-4 12.5t-3.5 12.5t-3 14t-2.5 12.5
q-68 -75 -168 -75q-77 0 -124 38t-47 117t54.5 118.5t122.5 48t155 10.5zM139 149q0 -82 85 -82q49 0 84.5 18t72.5 51v118q-125 0 -161 -14q-19 -7 -40 -18q-41 -21 -41 -73zM338 607q-40 0 -40 22v51q0 22 40 22h4q40 0 40 -22v-51q0 -22 -40 -22h-4zM194 607
q-40 0 -40 22v51q0 22 40 22h4q40 0 40 -22v-51q0 -22 -40 -22h-4z" />
    <glyph glyph-name="aring" unicode="&#xe5;" horiz-adv-x="545" 
d="M381 326v47q0 84 -110 84q-72 0 -133 -31q-21 -11 -23 -11q-10 0 -22.5 20t-12.5 30q0 21 58.5 42.5t140.5 21.5t134 -41.5t52 -115.5v-224q0 -60 5 -87q7 -37 7 -39q0 -12 -19 -17.5t-29.5 -5.5t-14.5 2t-7.5 7t-5.5 9.5t-4 12.5t-3.5 12.5t-3 14t-2.5 12.5
q-68 -75 -168 -75q-77 0 -124 38t-47 117t54.5 118.5t122.5 48t155 10.5zM139 149q0 -82 85 -82q49 0 84.5 18t72.5 51v118q-125 0 -161 -14q-19 -7 -40 -18q-41 -21 -41 -73zM268 564q-35 0 -59.5 24.5t-24.5 59.5t24.5 60t59.5 25t60 -25t25 -60t-25 -59.5t-60 -24.5z
M268 599q21 0 35.5 14t14.5 35t-14.5 35.5t-35.5 14.5t-35 -14.5t-14 -35.5t14 -35t35 -14z" />
    <glyph glyph-name="ae" unicode="&#xe6;" horiz-adv-x="829" 
d="M45 144q0 41 17.5 71.5t44 48t67.5 28.5q67 18 164 20q6 62 28 104q-26 41 -99 41q-72 0 -133 -31q-21 -11 -23 -11q-10 0 -22.5 20t-12.5 30q0 21 58.5 42.5t129.5 21.5q99 0 152 -48q57 48 155.5 48t150.5 -63t52 -184q0 -9 -12 -25t-21 -16h-316q6 -91 43 -133
t111 -42q68 0 125 32q19 10 21 10q10 0 22.5 -20t12.5 -30q0 -20 -54.5 -42t-125.5 -22q-123 0 -183 63q-76 -63 -181 -63q-77 0 -124 38t-47 112zM685 313q0 144 -120 144q-129 0 -140 -144h260zM135 149q0 -82 85 -82q73 0 138 52q-22 51 -23 121q-147 -3 -183 -44
q-17 -19 -17 -47z" />
    <glyph glyph-name="ccedilla" unicode="&#xe7;" horiz-adv-x="485" 
d="M52 264q0 75 20.5 129t55.5 83q66 53 161 53q58 0 104 -14t46 -32q0 -13 -11.5 -33.5t-20.5 -20.5q-1 0 -3.5 1t-4 1.5t-3.5 1.5q-54 24 -109 24q-145 0 -145 -191q0 -106 35.5 -153t119.5 -47q61 0 113 26q3 1 6.5 2.5t4.5 1.5q10 0 22 -19.5t12 -31.5q0 -18 -47 -34.5
t-110 -16.5h-4l-12 -43h4q16 0 32.5 -3.5t34.5 -21t18 -47.5q0 -89 -115 -89q-39 0 -77 12t-38 31q0 26 19 26q5 0 33 -10t50 -10q57 0 57 35q0 19 -16.5 28t-33 14t-16.5 16q0 2 2 12l16 53q-101 10 -150.5 74.5t-49.5 192.5z" />
    <glyph glyph-name="egrave" unicode="&#xe8;" horiz-adv-x="539" 
d="M115 59q-60 65 -60 198.5t59 202.5t168 69q212 0 212 -261q0 -9 -12 -25t-21 -16h-316q6 -83 43 -122t111 -39q68 0 125 32q19 10 21 10q10 0 22.5 -20t12.5 -30q0 -20 -54.5 -42t-125.5 -22q-125 0 -185 65zM405 299q0 158 -120 158q-129 0 -140 -158h260zM352 615
q0 -10 -29 -10t-45 18q-88 101 -91 106.5t-3 9.5q0 13 47.5 13t62.5 -26q58 -101 58 -111z" />
    <glyph glyph-name="eacute" unicode="&#xe9;" horiz-adv-x="539" 
d="M115 59q-60 65 -60 198.5t59 202.5t168 69q212 0 212 -261q0 -9 -12 -25t-21 -16h-316q6 -83 43 -122t111 -39q68 0 125 32q19 10 21 10q10 0 22.5 -20t12.5 -30q0 -20 -54.5 -42t-125.5 -22q-125 0 -185 65zM405 299q0 158 -120 158q-129 0 -140 -158h260zM387.5 720
q-9.5 -12 -39.5 -46t-46 -51.5t-44.5 -17.5t-28.5 10t58 111q15 26 62.5 26t47.5 -13q0 -7 -9.5 -19z" />
    <glyph glyph-name="ecircumflex" unicode="&#xea;" horiz-adv-x="539" 
d="M115 59q-60 65 -60 198.5t59 202.5t168 69q212 0 212 -261q0 -9 -12 -25t-21 -16h-316q6 -83 43 -122t111 -39q68 0 125 32q19 10 21 10q10 0 22.5 -20t12.5 -30q0 -20 -54.5 -42t-125.5 -22q-125 0 -185 65zM405 299q0 158 -120 158q-129 0 -140 -158h260zM223 597
q-14 -13 -36.5 -13t-22.5 14q0 8 6 18l56 88q15 22 46 22h25q31 0 46 -22l57 -88q6 -9 6 -17q0 -15 -22.5 -15t-36.5 13l-63 74z" />
    <glyph glyph-name="edieresis" unicode="&#xeb;" horiz-adv-x="539" 
d="M115 59q-60 65 -60 198.5t59 202.5t168 69q212 0 212 -261q0 -9 -12 -25t-21 -16h-316q6 -83 43 -122t111 -39q68 0 125 32q19 10 21 10q10 0 22.5 -20t12.5 -30q0 -20 -54.5 -42t-125.5 -22q-125 0 -185 65zM405 299q0 158 -120 158q-129 0 -140 -158h260zM355 607
q-40 0 -40 22v51q0 22 40 22h4q40 0 40 -22v-51q0 -22 -40 -22h-4zM211 607q-40 0 -40 22v51q0 22 40 22h4q40 0 40 -22v-51q0 -22 -40 -22h-4z" />
    <glyph glyph-name="igrave" unicode="&#xec;" horiz-adv-x="265" 
d="M91 20v483q0 22 40 22h4q40 0 40 -22v-483q0 -22 -40 -22h-4q-40 0 -40 22zM201 615q0 -10 -28.5 -10t-45.5 18q-88 101 -91 106.5t-3 9.5q0 13 47.5 13t62.5 -26q58 -101 58 -111z" />
    <glyph glyph-name="iacute" unicode="&#xed;" horiz-adv-x="265" 
d="M91 20v483q0 22 40 22h4q40 0 40 -22v-483q0 -22 -40 -22h-4q-40 0 -40 22zM236.5 720q-9.5 -12 -39.5 -46t-45.5 -51.5t-44.5 -17.5t-29 10t58 111q15 26 62.5 26t47.5 -13q0 -7 -9.5 -19z" />
    <glyph glyph-name="icircumflex" unicode="&#xee;" horiz-adv-x="265" 
d="M91 20v483q0 22 40 22h4q40 0 40 -22v-483q0 -22 -40 -22h-4q-40 0 -40 22zM72 597q-14 -13 -36.5 -13t-22.5 14q0 8 6 18l56 88q15 22 46 22h25q31 0 46 -22l57 -88q6 -9 6 -17q0 -15 -22.5 -15t-36.5 13l-63 74z" />
    <glyph glyph-name="idieresis" unicode="&#xef;" horiz-adv-x="265" 
d="M91 20v483q0 22 40 22h4q40 0 40 -22v-483q0 -22 -40 -22h-4q-40 0 -40 22zM204 607q-40 0 -40 22v51q0 22 40 22h4q40 0 40 -22v-51q0 -22 -40 -22h-4zM60 607q-40 0 -40 22v51q0 22 40 22h4q40 0 40 -22v-51q0 -22 -40 -22h-4z" />
    <glyph glyph-name="eth" unicode="&#xf0;" horiz-adv-x="569" 
d="M321 607l-86 -12q-10 0 -18 10.5t-8 21t15 13.5l72 10q-26 38 -26 48q0 16 43 16q16 0 28.5 -14.5t30.5 -39.5q76 11 78 11q12 0 18.5 -12t6.5 -20q0 -11 -15 -13l-60 -8q114 -179 114 -359q0 -130 -57.5 -197.5t-170 -67.5t-172 68t-59.5 197.5t60 199.5t172 70
q44 0 80 -12q-22 48 -46 90zM284 66q73 0 108 47.5t35 147.5t-35 148t-108 48t-108 -48t-35 -148t35 -147.5t108 -47.5z" />
    <glyph glyph-name="ntilde" unicode="&#xf1;" horiz-adv-x="557" 
d="M86 20v351q0 61 -5 87q-7 36 -7 39q0 12 19 17.5t29.5 5.5t14.5 -2t7.5 -6.5t5.5 -9t4 -12t3.5 -12t3 -13t2.5 -11.5q67 75 149.5 75t126 -43t43.5 -119v-347q0 -22 -40 -22h-4q-40 0 -40 22v339q0 46 -26.5 71.5t-75.5 25.5q-72 0 -126 -70v-366q0 -22 -40 -22h-4
q-40 0 -40 22zM270 625q-41 10 -54 10t-30 -6.5t-28 -6.5t-20 10.5t-9 19.5q0 19 34 37.5t68 18.5t74.5 -10t56.5 -10t31.5 6.5t25 6.5t19 -11t9.5 -19q0 -19 -34 -37.5t-68 -18.5t-75 10z" />
    <glyph glyph-name="ograve" unicode="&#xf2;" horiz-adv-x="569" 
d="M114.5 62q-59.5 68 -59.5 197.5t60 199.5t171 70t169.5 -69.5t58.5 -200t-57.5 -198t-170 -67.5t-172 68zM284 66q73 0 108 47.5t35 147.5t-35 148t-108 48t-107 -47.5t-34 -148t34 -148t107 -47.5zM351 615q0 -10 -28.5 -10t-45.5 18q-88 101 -91 106.5t-3 9.5
q0 13 47.5 13t62.5 -26q58 -101 58 -111z" />
    <glyph glyph-name="oacute" unicode="&#xf3;" horiz-adv-x="569" 
d="M114.5 62q-59.5 68 -59.5 197.5t60 199.5t171 70t169.5 -69.5t58.5 -200t-57.5 -198t-170 -67.5t-172 68zM284 66q73 0 108 47.5t35 147.5t-35 148t-108 48t-107 -47.5t-34 -148t34 -148t107 -47.5zM386.5 720q-9.5 -12 -39.5 -46t-45.5 -51.5t-44.5 -17.5t-29 10t58 111
q15 26 62.5 26t47.5 -13q0 -7 -9.5 -19z" />
    <glyph glyph-name="ocircumflex" unicode="&#xf4;" horiz-adv-x="569" 
d="M114.5 62q-59.5 68 -59.5 197.5t60 199.5t171 70t169.5 -69.5t58.5 -200t-57.5 -198t-170 -67.5t-172 68zM284 66q73 0 108 47.5t35 147.5t-35 148t-108 48t-107 -47.5t-34 -148t34 -148t107 -47.5zM222 597q-14 -13 -36.5 -13t-22.5 14q0 8 6 18l56 88q15 22 46 22h25
q31 0 46 -22l57 -88q6 -9 6 -17q0 -15 -22.5 -15t-36.5 13l-63 74z" />
    <glyph glyph-name="otilde" unicode="&#xf5;" horiz-adv-x="569" 
d="M114.5 62q-59.5 68 -59.5 197.5t60 199.5t171 70t169.5 -69.5t58.5 -200t-57.5 -198t-170 -67.5t-172 68zM284 66q73 0 108 47.5t35 147.5t-35 148t-108 48t-107 -47.5t-34 -148t34 -148t107 -47.5zM266 625q-41 10 -54 10t-30 -6.5t-28 -6.5t-20 10.5t-9 19.5
q0 19 34 37.5t68 18.5t74.5 -10t56.5 -10t31.5 6.5t25 6.5t19 -11t9.5 -19q0 -19 -34 -37.5t-68 -18.5t-75 10z" />
    <glyph glyph-name="odieresis" unicode="&#xf6;" horiz-adv-x="569" 
d="M114.5 62q-59.5 68 -59.5 197.5t60 199.5t171 70t169.5 -69.5t58.5 -200t-57.5 -198t-170 -67.5t-172 68zM284 66q73 0 108 47.5t35 147.5t-35 148t-108 48t-107 -47.5t-34 -148t34 -148t107 -47.5zM354 607q-40 0 -40 22v51q0 22 40 22h4q40 0 40 -22v-51q0 -22 -40 -22
h-4zM210 607q-40 0 -40 22v51q0 22 40 22h4q40 0 40 -22v-51q0 -22 -40 -22h-4z" />
    <glyph glyph-name="divide" unicode="&#xf7;" horiz-adv-x="560" 
d="M238 390v51q0 22 40 22h4q40 0 40 -22v-51q0 -22 -40 -22h-4q-40 0 -40 22zM78 197q-30 0 -30 30v7q0 30 30 30h404q30 0 30 -30v-7q0 -30 -30 -30h-404zM238 20v51q0 22 40 22h4q40 0 40 -22v-51q0 -22 -40 -22h-4q-40 0 -40 22z" />
    <glyph glyph-name="oslash" unicode="&#xf8;" horiz-adv-x="569" 
d="M72 9.5q-8 7.5 -8 13t7 14.5l31 37q-47 65 -47 185q0 80 21 136t57 83q65 50 159.5 50t152.5 -55l34 40q8 8 14 8t14 -7.5t8 -13.5t-6 -14l-39 -45q44 -67 44 -182q0 -264 -227 -264q-100 0 -157 49l-29 -34q-8 -8 -14.5 -8t-14.5 7.5zM391 410q-35 46 -106 46t-107 -45
t-36 -150q0 -75 18 -119zM183 105q34 -38 102.5 -38t105 45t36.5 149q0 69 -16 111z" />
    <glyph glyph-name="ugrave" unicode="&#xf9;" horiz-adv-x="557" 
d="M75 156v347q0 22 40 22h4q40 0 40 -22v-339q0 -46 26.5 -71.5t75.5 -25.5q72 0 126 70v366q0 22 40 22h4q40 0 40 -22v-355q0 -60 5 -87q7 -37 7 -39q0 -12 -19 -17.5t-29.5 -5.5t-14.5 2t-7.5 7t-5.5 9.5t-4 12.5t-3.5 12.5t-3 14t-2.5 12.5q-67 -75 -149.5 -75t-126 43
t-43.5 119zM342 615q0 -10 -29 -10t-45 18q-88 101 -91 106.5t-3 9.5q0 13 47.5 13t62.5 -26q58 -101 58 -111z" />
    <glyph glyph-name="uacute" unicode="&#xfa;" horiz-adv-x="557" 
d="M75 156v347q0 22 40 22h4q40 0 40 -22v-339q0 -46 26.5 -71.5t75.5 -25.5q72 0 126 70v366q0 22 40 22h4q40 0 40 -22v-355q0 -60 5 -87q7 -37 7 -39q0 -12 -19 -17.5t-29.5 -5.5t-14.5 2t-7.5 7t-5.5 9.5t-4 12.5t-3.5 12.5t-3 14t-2.5 12.5q-67 -75 -149.5 -75t-126 43
t-43.5 119zM377.5 720q-9.5 -12 -39.5 -46t-46 -51.5t-44.5 -17.5t-28.5 10t58 111q15 26 62.5 26t47.5 -13q0 -7 -9.5 -19z" />
    <glyph glyph-name="ucircumflex" unicode="&#xfb;" horiz-adv-x="557" 
d="M75 156v347q0 22 40 22h4q40 0 40 -22v-339q0 -46 26.5 -71.5t75.5 -25.5q72 0 126 70v366q0 22 40 22h4q40 0 40 -22v-355q0 -60 5 -87q7 -37 7 -39q0 -12 -19 -17.5t-29.5 -5.5t-14.5 2t-7.5 7t-5.5 9.5t-4 12.5t-3.5 12.5t-3 14t-2.5 12.5q-67 -75 -149.5 -75t-126 43
t-43.5 119zM213 597q-14 -13 -36.5 -13t-22.5 14q0 8 6 18l56 88q15 22 46 22h25q31 0 46 -22l57 -88q6 -9 6 -17q0 -15 -22.5 -15t-36.5 13l-63 74z" />
    <glyph glyph-name="udieresis" unicode="&#xfc;" horiz-adv-x="557" 
d="M75 156v347q0 22 40 22h4q40 0 40 -22v-339q0 -46 26.5 -71.5t75.5 -25.5q72 0 126 70v366q0 22 40 22h4q40 0 40 -22v-355q0 -60 5 -87q7 -37 7 -39q0 -12 -19 -17.5t-29.5 -5.5t-14.5 2t-7.5 7t-5.5 9.5t-4 12.5t-3.5 12.5t-3 14t-2.5 12.5q-67 -75 -149.5 -75t-126 43
t-43.5 119zM345 607q-40 0 -40 22v51q0 22 40 22h4q40 0 40 -22v-51q0 -22 -40 -22h-4zM201 607q-40 0 -40 22v51q0 22 40 22h4q40 0 40 -22v-51q0 -22 -40 -22h-4z" />
    <glyph glyph-name="yacute" unicode="&#xfd;" horiz-adv-x="481" 
d="M18 508q0 17 43 17h8q33 0 40 -16l136 -361l133 361q5 16 44.5 16t39.5 -17q0 -5 -3 -14l-257 -681q-8 -21 -47 -21h-15q-33 0 -33 16q0 3 89 220l-175 467q-3 9 -3 13zM342.5 720q-9.5 -12 -39.5 -46t-45.5 -51.5t-44.5 -17.5t-29 10t58 111q15 26 62.5 26t47.5 -13
q0 -7 -9.5 -19z" />
    <glyph glyph-name="thorn" unicode="&#xfe;" horiz-adv-x="570" 
d="M169 -186q0 -22 -40 -22h-4q-40 0 -40 22v916q0 22 40 22h4q40 0 40 -22v-269q69 68 155 68t138.5 -74t52.5 -190v-9q0 -123 -56 -192.5t-140 -69.5t-150 51v-231zM290 68h6q64 1 97.5 49t33.5 141t-32 145.5t-97.5 52.5t-128.5 -69v-274q54 -45 121 -45z" />
    <glyph glyph-name="ydieresis" unicode="&#xff;" horiz-adv-x="481" 
d="M18 508q0 17 43 17h8q33 0 40 -16l136 -361l133 361q5 16 44.5 16t39.5 -17q0 -5 -3 -14l-257 -681q-8 -21 -47 -21h-15q-33 0 -33 16q0 3 89 220l-175 467q-3 9 -3 13zM310 607q-40 0 -40 22v51q0 22 40 22h4q40 0 40 -22v-51q0 -22 -40 -22h-4zM166 607q-40 0 -40 22
v51q0 22 40 22h4q40 0 40 -22v-51q0 -22 -40 -22h-4z" />
    <glyph glyph-name="dotlessi" unicode="&#x131;" horiz-adv-x="265" 
d="M91 20v483q0 22 40 22h4q40 0 40 -22v-483q0 -22 -40 -22h-4q-40 0 -40 22z" />
    <glyph glyph-name="Lslash" unicode="&#x141;" horiz-adv-x="486" 
d="M85 30v318l-68 -40q-5 -4 -10 -4q-9 0 -9 14v6q0 19 19 30l68 40v286q0 22 40 22h8q40 0 40 -22v-233l108 64q8 4 10 4q9 0 9 -14v-6q0 -19 -19 -30l-108 -64v-325h291q20 0 20 -30v-16q0 -30 -20 -30h-349q-30 0 -30 30z" />
    <glyph glyph-name="lslash" unicode="&#x142;" horiz-adv-x="293" 
d="M80 132v221l-42 -25q-5 -4 -10 -4q-9 0 -9 14v6q0 19 19 30l42 24v332q0 22 40 22h4q40 0 40 -22v-282l42 25q8 4 10 4q9 0 9 -14v-6q0 -19 -19 -30l-42 -25v-262q0 -74 54 -74q17 0 29 2.5t14 2.5q9 0 15 -18.5t6 -28.5q0 -30 -73 -30q-50 0 -89.5 30.5t-39.5 107.5z
" />
    <glyph glyph-name="OE" unicode="&#x152;" horiz-adv-x="1021" 
d="M57 352q0 175 78.5 264.5t225.5 89.5t224 -82v46q0 30 30 30h352q20 0 20 -30v-16q0 -30 -20 -30h-294v-228h264q20 0 20 -30v-16q0 -30 -20 -30h-264v-244h295q20 0 20 -30v-16q0 -30 -20 -30h-353q-30 0 -30 30v48q-77 -84 -223.5 -84t-225.5 91.5t-79 266.5zM365 70
q106 0 162 72t56 209.5t-56 208t-162 70.5t-161.5 -70.5t-55.5 -208t55.5 -209.5t161.5 -72z" />
    <glyph glyph-name="oe" unicode="&#x153;" horiz-adv-x="871" 
d="M114.5 62q-59.5 68 -59.5 197.5t60 199.5t167 70t164 -59q59 59 162.5 59t155.5 -66.5t52 -194.5q0 -9 -12 -25t-21 -16h-316q6 -83 43 -122t111 -39q68 0 125 32q19 10 21 10q10 0 22.5 -20t12.5 -30q0 -20 -54.5 -42t-125.5 -22q-117 0 -176 56q-58 -56 -165 -56
t-166.5 68zM727 299q0 158 -120 158q-129 0 -140 -158h260zM177 113.5q34 -47.5 110.5 -47.5t110.5 56q-21 56 -21 137t22 138q-34 60 -111 60t-111 -47.5t-34 -148t34 -148z" />
    <glyph glyph-name="Scaron" unicode="&#x160;" horiz-adv-x="500" 
d="M37 67q0 12 13.5 33t21.5 21q3 0 25 -12.5t62 -25.5t91.5 -13t88 33t36.5 84t-33.5 81t-81 47.5t-95.5 37.5t-81.5 62t-33.5 107q0 83 61 133.5t161 50.5q49 0 105 -18t56 -43q0 -11 -12.5 -32t-19.5 -21q-4 0 -21 10q-51 28 -110 28t-94 -28.5t-35 -83.5t65 -86
q28 -13 63 -25.5t69.5 -29t63 -38.5t46.5 -60t18 -88q0 -92 -60 -144.5t-152 -52.5t-154.5 25t-62.5 48zM245 762q-31 0 -46 22l-56 88q-6 10 -6 18q0 14 22.5 14t36.5 -13l61 -74l63 74q14 13 36.5 13t22.5 -15q0 -8 -6 -17l-57 -88q-15 -22 -46 -22h-25z" />
    <glyph glyph-name="scaron" unicode="&#x161;" horiz-adv-x="413" 
d="M35 54q0 10 12.5 30t22.5 20q1 0 16 -9.5t43 -19t67.5 -9.5t65 22.5t25.5 61t-22.5 60t-89.5 40.5t-97 48.5t-30 89.5t46 100.5t120 40.5q51 0 91 -13t40 -29q0 -13 -11.5 -33.5t-20.5 -20.5q-1 0 -13 6q-34 18 -76.5 18t-66 -17.5t-23.5 -45.5t17.5 -44t59.5 -29
q94 -29 127.5 -63.5t33.5 -104t-49.5 -114.5t-118.5 -45t-119 20.5t-50 39.5zM198 582q-31 0 -46 22l-56 88q-6 10 -6 18q0 14 22.5 14t36.5 -13l61 -74l63 74q14 13 36.5 13t22.5 -15q0 -8 -6 -17l-57 -88q-15 -22 -46 -22h-25z" />
    <glyph glyph-name="Ydieresis" unicode="&#x178;" horiz-adv-x="559" 
d="M235 20v339l-209 308q-8 11 -8 18q0 17 46 17h11q33 0 43 -15l164 -246l168 247q9 14 50 14t41 -17q0 -4 -8 -18l-210 -311v-336q0 -22 -40 -22h-8q-40 0 -40 22zM349 787q-40 0 -40 22v51q0 22 40 22h4q40 0 40 -22v-51q0 -22 -40 -22h-4zM205 787q-40 0 -40 22v51
q0 22 40 22h4q40 0 40 -22v-51q0 -22 -40 -22h-4z" />
    <glyph glyph-name="Zcaron" unicode="&#x17d;" horiz-adv-x="616" 
d="M62 0q-7 0 -15.5 19t-8.5 30t3 16l410 559h-360q-20 0 -20 34v8q0 34 20 34h458q6 0 14 -19t8 -30t-3 -16l-410 -559h391q20 0 20 -34v-8q0 -34 -20 -34h-487zM295 763q-31 0 -46 22l-56 88q-6 11 -6 18q0 14 22.5 14t36.5 -13l61 -74l63 74q14 13 36.5 13t22.5 -15
q0 -8 -6 -17l-57 -88q-15 -22 -46 -22h-25z" />
    <glyph glyph-name="zcaron" unicode="&#x17e;" horiz-adv-x="489" 
d="M59 0q-6 0 -14 18t-8 28.5t3 15.5l293 389h-256q-20 0 -20 30v12q0 30 20 30h351q7 0 13.5 -18.5t6.5 -29t-2 -14.5l-292 -389h275q20 0 20 -30v-12q0 -30 -20 -30h-370zM241 582q-31 0 -46 22l-56 88q-6 10 -6 18q0 14 22.5 14t36.5 -13l61 -74l63 74q14 13 36.5 13
t22.5 -15q0 -8 -6 -17l-57 -88q-15 -22 -46 -22h-25z" />
    <glyph glyph-name="florin" unicode="&#x192;" horiz-adv-x="332" 
d="M63 441q-17 0 -17 19q0 7 3 23q4 30 24 30h40l14 105q11 79 54.5 108.5t94.5 29.5q69 0 69 -30q-12 -47 -28 -47q-2 0 -13.5 2.5t-33 2.5t-38 -14.5t-22.5 -59.5l-13 -97h87q17 0 17 -20q0 -27 -8.5 -39.5t-18.5 -12.5h-87l-88 -626q-3 -22 -43 -22h-4q-37 0 -37 22
l88 626h-40z" />
    <glyph glyph-name="circumflex" unicode="&#x2c6;" 
d="M95 597q-14 -13 -36.5 -13t-22.5 14q0 8 6 18l56 88q15 22 46 22h25q31 0 46 -22l57 -88q6 -9 6 -17q0 -15 -22.5 -15t-36.5 13l-63 74z" />
    <glyph glyph-name="caron" unicode="&#x2c7;" 
d="M143 582q-31 0 -46 22l-56 88q-6 10 -6 18q0 14 22.5 14t36.5 -13l61 -74l63 74q14 13 36.5 13t22.5 -15q0 -8 -6 -17l-57 -88q-15 -22 -46 -22h-25z" />
    <glyph glyph-name="breve" unicode="&#x2d8;" 
d="M259 615.5q-43 -30.5 -101.5 -30.5t-101.5 30.5t-43 84.5q0 15 15 15q11 0 13 -5q6 -14 9 -20q21 -39 108 -39q95 0 110 47q5 14 9.5 15.5t9.5 1.5q15 0 15 -15q0 -54 -43 -84.5z" />
    <glyph glyph-name="dotaccent" unicode="&#x2d9;" 
d="M160 607q-40 0 -40 22v51q0 22 40 22h4q40 0 40 -22v-51q0 -22 -40 -22h-4z" />
    <glyph glyph-name="ring" unicode="&#x2da;" 
d="M160 564q-35 0 -59.5 24.5t-24.5 59.5t24.5 60t59.5 25t60 -25t25 -60t-25 -59.5t-60 -24.5zM160 599q21 0 35.5 14t14.5 35t-14.5 35.5t-35.5 14.5t-35 -14.5t-14 -35.5t14 -35t35 -14z" />
    <glyph glyph-name="ogonek" unicode="&#x2db;" 
d="M183 -113l52 10q19 0 19 -25v-9q0 -46 -82 -46q-37 0 -63 11.5t-37 29.5q-18 32 -18 52.5t2 34.5t7 30.5t16.5 27.5t26.5 11h9q18 0 18 -15q0 -6 -6 -27t-6 -34q0 -51 62 -51z" />
    <glyph glyph-name="tilde" unicode="&#x2dc;" horiz-adv-x="365" 
d="M165 625q-41 10 -54 10t-30 -6.5t-28 -6.5t-20 10.5t-9 19.5q0 19 34 37.5t68 18.5t74.5 -10t56.5 -10t31.5 6.5t25 6.5t19 -11t9.5 -19q0 -19 -34 -37.5t-68 -18.5t-75 10z" />
    <glyph glyph-name="hungarumlaut" unicode="&#x2dd;" horiz-adv-x="384" 
d="M364.5 720q-9.5 -12 -39.5 -46t-45.5 -51.5t-44.5 -17.5t-29 10t58 111q15 26 62.5 26t47.5 -13q0 -7 -9.5 -19zM217.5 720q-9.5 -12 -39.5 -46t-45.5 -51.5t-44.5 -17.5t-29 10t58 111q15 26 62.5 26t47.5 -13q0 -7 -9.5 -19z" />
    <glyph glyph-name="pi" unicode="&#x3c0;" horiz-adv-x="616" 
d="M66 19q0 3 2 9q27 82 47 202t25 221q-46 0 -75 -4.5t-31 -4.5q-20 0 -20 37q0 44 148 44h406q24 0 24 -19q0 -5 -3 -31q-2 -22 -31 -22h-55v-297q0 -39 4.5 -81.5t4.5 -49.5q0 -25 -26 -25h-24q-28 0 -35.5 30.5t-7.5 117.5v305h-195q-5 -99 -26 -226t-47 -202
q-9 -25 -34 -25h-23q-28 0 -28 21z" />
    <glyph glyph-name="endash" unicode="&#x2013;" horiz-adv-x="500" 
d="M20 230q-20 0 -20 30v10q0 30 20 30h460q20 0 20 -30v-10q0 -30 -20 -30h-460z" />
    <glyph glyph-name="emdash" unicode="&#x2014;" horiz-adv-x="1000" 
d="M20 230q-20 0 -20 30v10q0 30 20 30h960q20 0 20 -30v-10q0 -30 -20 -30h-960z" />
    <glyph glyph-name="quoteleft" unicode="&#x2018;" horiz-adv-x="212" 
d="M98 515q-40 0 -40 28q0 81 36.5 138.5t66 57.5t29.5 -15q0 -6 -9 -24q-34 -65 -34 -153q0 -32 -40 -32h-9z" />
    <glyph glyph-name="quoteright" unicode="&#x2019;" horiz-adv-x="212" 
d="M127.5 587.5q-36.5 -57.5 -66 -57.5t-29.5 15q0 6 9 24q34 68 34 153q0 32 40 32h9q40 0 40 -28q0 -81 -36.5 -138.5z" />
    <glyph glyph-name="quotesinglbase" unicode="&#x201a;" horiz-adv-x="198" 
d="M55 76q0 32 40 32h9q40 0 40 -28q0 -81 -36.5 -138.5t-66 -57.5t-29.5 15q0 6 9 24q34 68 34 153z" />
    <glyph glyph-name="quotedblleft" unicode="&#x201c;" horiz-adv-x="350" 
d="M219 515q-40 0 -40 28q0 81 36.5 138.5t66 57.5t29.5 -15q0 -6 -9 -24q-34 -65 -34 -153q0 -32 -40 -32h-9zM80 515q-40 0 -40 28q0 81 36.5 138.5t66 57.5t29.5 -15q0 -6 -9 -24q-34 -65 -34 -153q0 -32 -40 -32h-9z" />
    <glyph glyph-name="quotedblright" unicode="&#x201d;" horiz-adv-x="350" 
d="M268.5 587.5q-36.5 -57.5 -66 -57.5t-29.5 15q0 6 9 24q34 68 34 153q0 32 40 32h9q40 0 40 -28q0 -81 -36.5 -138.5zM129.5 587.5q-36.5 -57.5 -66 -57.5t-29.5 15q0 6 9 24q34 68 34 153q0 32 40 32h9q40 0 40 -28q0 -81 -36.5 -138.5z" />
    <glyph glyph-name="quotedblbase" unicode="&#x201e;" horiz-adv-x="336" 
d="M194 76q0 32 40 32h9q40 0 40 -28q0 -81 -36.5 -138.5t-66 -57.5t-29.5 15q0 6 9 24q34 68 34 153zM55 76q0 32 40 32h9q40 0 40 -28q0 -81 -36.5 -138.5t-66 -57.5t-29.5 15q0 6 9 24q34 68 34 153z" />
    <glyph glyph-name="dagger" unicode="&#x2020;" horiz-adv-x="535" 
d="M227 -118v540h-158q-20 0 -20 30v20q0 30 20 30h158v178q0 22 41 22t41 -22v-178h157q20 0 20 -30v-20q0 -30 -20 -30h-157v-540q0 -22 -41 -22t-41 22z" />
    <glyph glyph-name="daggerdbl" unicode="&#x2021;" horiz-adv-x="535" 
d="M69 60q-20 0 -20 30v20q0 30 20 30h158v282h-158q-20 0 -20 30v20q0 30 20 30h158v178q0 22 41 22t41 -22v-178h157q20 0 20 -30v-20q0 -30 -20 -30h-157v-282h157q20 0 20 -30v-20q0 -30 -20 -30h-157v-178q0 -22 -41 -22t-41 22v178h-158z" />
    <glyph glyph-name="bullet" unicode="&#x2022;" horiz-adv-x="336" 
d="M167 201q-53 0 -89 36.5t-36 89t36.5 89t89 36.5t89 -37t36.5 -89t-36.5 -88.5t-89.5 -36.5z" />
    <glyph glyph-name="ellipsis" unicode="&#x2026;" horiz-adv-x="617" 
d="M468 20v66q0 22 40 22h17q40 0 40 -22v-66q0 -22 -40 -22h-17q-40 0 -40 22zM260 20v66q0 22 40 22h17q40 0 40 -22v-66q0 -22 -40 -22h-17q-40 0 -40 22zM51 20v66q0 22 40 22h17q40 0 40 -22v-66q0 -22 -40 -22h-17q-40 0 -40 22z" />
    <glyph glyph-name="perthousand" unicode="&#x2030;" horiz-adv-x="1038" 
d="M141 2q0 5 4 10l373 675q10 19 40 19h5q24 0 24 -9q0 -2 -4 -10l-373 -675q-10 -19 -40 -19h-5q-24 0 -24 9zM201 381q-137 0 -137 162.5t137 162.5q57 0 97 -36.5t40 -127t-40 -126t-97 -35.5zM201 436q73 0 73 106q0 79 -33 100q-16 10 -39.5 10t-39 -10t-22.5 -28
q-10 -29 -10 -65t3.5 -56.5t20.5 -38.5t47 -18zM841 -5q-137 0 -137 162.5t137 162.5q57 0 97 -36.5t40 -127t-40 -126t-97 -35.5zM529 -5q-137 0 -137 162.5t137 162.5q57 0 97 -36.5t40 -127t-40 -126t-97 -35.5zM772 194q-2 -16 -2 -41.5t3.5 -46t20.5 -38.5t47 -18
q73 0 73 106q0 79 -33 100q-16 10 -39.5 10t-39 -10t-22 -28t-8.5 -34zM460 194q-2 -16 -2 -41.5t3.5 -46t20.5 -38.5t47 -18q73 0 73 106q0 79 -33 100q-16 10 -39.5 10t-39 -10t-22 -28t-8.5 -34z" />
    <glyph glyph-name="guilsinglleft" unicode="&#x2039;" horiz-adv-x="300" 
d="M46 258q0 12 13 28l130 156q11 12 21.5 12t23 -10t12.5 -20.5t-8 -21.5l-111 -144l111 -145q8 -11 8 -20t-12 -20.5t-23 -11.5t-22 13l-130 156q-13 16 -13 28z" />
    <glyph glyph-name="guilsinglright" unicode="&#x203a;" horiz-adv-x="300" 
d="M89 61q-11 0 -23 11.5t-12 20.5t8 20l111 145l-111 144q-8 11 -8 21.5t12.5 20.5t23 10t21.5 -12l130 -156q13 -16 13 -28t-13 -28l-130 -156q-11 -13 -22 -13z" />
    <glyph glyph-name="fraction" unicode="&#x2044;" horiz-adv-x="264" 
d="M-46 -3h-4q-26 0 -26 20q0 7 3 15l361 648q12 23 35 23h4q24 0 24 -20q0 -7 -3 -15l-361 -648q-12 -23 -33 -23z" />
    <glyph glyph-name="Euro" unicode="&#x20ac;" horiz-adv-x="600" 
d="M20 236q-20 0 -20 30v7q0 30 20 30h49q-1 15 -1 46.5t1 46.5h-49q-20 0 -20 30v7q0 30 20 30h57q20 120 95.5 181.5t192.5 61.5q64 0 117.5 -20.5t53.5 -41.5q0 -13 -12.5 -33.5t-21.5 -20.5q-2 0 -19 11t-49.5 22t-70.5 11q-82 0 -131 -40.5t-66 -130.5h278q20 0 20 -30
v-7q0 -30 -20 -30h-286q-1 -15 -1 -47t1 -46h286q20 0 20 -30v-7q0 -30 -20 -30h-278q17 -87 67 -128.5t122 -41.5q42 0 79 12.5t58 25t23 12.5q9 0 22 -20.5t13 -29.5q0 -23 -57 -47.5t-130 -24.5q-251 0 -288 242h-55z" />
    <glyph glyph-name="trademark" unicode="&#x2122;" horiz-adv-x="772" 
d="M352 317v372q0 12 22 12h21q18 0 23 -10l107 -185l14 -35l15 32l106 188q7 10 24 10h19q22 0 22 -12v-372q0 -12 -22 -12h-4q-23 0 -23 12v303l-113 -197q-4 -7 -12 -7h-23q-8 0 -12 7l-115 200v-306q0 -12 -23 -12h-4q-22 0 -22 12zM172 305q-23 0 -23 12v340h-108
q-11 0 -11 17v9q0 17 11 17h264q11 0 11 -17v-9q0 -17 -11 -17h-106v-340q0 -12 -23 -12h-4z" />
    <glyph glyph-name="Omega" unicode="&#x2126;" horiz-adv-x="731" 
d="M41 30v8q0 30 20 30h38l59 -4q-101 93 -101 278t78.5 274.5t229.5 89.5t230 -89.5t79 -274.5t-102 -278l59 4h38q20 0 20 -30v-8q0 -30 -20 -30h-237q-20 0 -20 30v4q0 16 7 18q164 42 164 300q0 137 -56 207.5t-162 70.5t-161.5 -70.5t-55.5 -207.5q0 -259 163 -300
q7 -2 7 -18v-4q0 -30 -20 -30h-237q-20 0 -20 30z" />
    <glyph glyph-name="arrowleft" unicode="&#x2190;" horiz-adv-x="750" 
d="M0 264v4q0 9 7 16l233 232q14 14 34 14h55q19 0 19 -5.5t-10 -15.5l-212 -208h603q22 0 22 -30v-10q0 -30 -22 -30h-603l213 -209q10 -10 10 -15.5t-19 -5.5h-55q-20 0 -34 14l-234 233q-7 7 -7 16z" />
    <glyph glyph-name="arrowup" unicode="&#x2191;" horiz-adv-x="529" 
d="M-1 271v55q0 19 5.5 19t15.5 -10l209 -213v564q0 22 30 22h10q30 0 30 -22v-564l208 212q10 10 15.5 10t5.5 -19v-55q0 -20 -14 -34l-232 -233q-7 -7 -16 -7h-4q-9 0 -16 7l-233 234q-14 14 -14 34z" />
    <glyph glyph-name="arrowright" unicode="&#x2192;" horiz-adv-x="750" 
d="M22 230q-22 0 -22 30v10q0 30 22 30h602l-213 209q-10 10 -10 15.5t19 5.5h55q20 0 34 -14l234 -233q7 -7 7 -16v-4q0 -9 -7 -16l-233 -232q-14 -14 -34 -14h-55q-19 0 -19 5.5t10 15.5l212 208h-602z" />
    <glyph glyph-name="arrowdown" unicode="&#x2193;" horiz-adv-x="529" 
d="M229 20v564l-208 -212q-10 -10 -15.5 -10t-5.5 19v55q0 20 14 34l232 233q7 7 16 7h4q9 0 16 -7l233 -234q14 -14 14 -34v-55q0 -19 -5.5 -19t-15.5 10l-209 213v-564q0 -22 -30 -22h-10q-30 0 -30 22z" />
    <glyph glyph-name="partialdiff" unicode="&#x2202;" horiz-adv-x="514" 
d="M59.5 99.5q-19.5 42.5 -19.5 98.5t21 99t53 67q65 50 131 50q85 0 136 -55q0 137 -53 221.5t-129 84.5q-46 0 -82 -23q-12 -7 -17.5 -7t-17.5 17t-12 27q0 22 46.5 40.5t95.5 18.5q118 0 193 -106t75 -295q0 -98 -24 -169t-63 -107q-73 -67 -155 -67q-65 0 -127 42
q-32 21 -51.5 63.5zM167.5 297q-35.5 -47 -35.5 -102t26.5 -94.5t84 -39.5t94 67t42.5 166q-50 50 -113 50t-98.5 -47z" />
    <glyph glyph-name="Delta" unicode="&#x2206;" horiz-adv-x="708" 
d="M34 30q0 18 8 37l264 620q10 23 35 23h26q25 0 35 -23l263 -620q8 -21 8 -37q0 -30 -30 -30h-579q-30 0 -30 30zM116 68h471l-232 551h-5z" />
    <glyph glyph-name="product" unicode="&#x220f;" horiz-adv-x="750" 
d="M147 -82v710h-103q-20 0 -20 30v12q0 30 20 30h661q20 0 20 -30v-12q0 -30 -20 -30h-103v-710q0 -22 -40 -22h-6q-40 0 -40 22v710h-283v-710q0 -22 -40 -22h-6q-40 0 -40 22z" />
    <glyph glyph-name="summation" unicode="&#x2211;" horiz-adv-x="593" 
d="M47 638q-12 16 -12 39t30 23h459q30 0 30 -30v-12q0 -30 -30 -30h-358v-4l215 -292q8 -9 8 -21t-8 -21l-236 -303l1 -4h396q30 0 30 -30v-25q0 -30 -30 -30h-489q-30 0 -30 30q0 19 13 36l263 336z" />
    <glyph glyph-name="minus" unicode="&#x2212;" horiz-adv-x="560" 
d="M58 186q-20 0 -20 30v13q0 30 20 30h444q20 0 20 -30v-13q0 -30 -20 -30h-444z" />
    <glyph glyph-name="radical" unicode="&#x221a;" horiz-adv-x="618" 
d="M60 272q-12 0 -16 13q-8 22 -8 31t14 14.5t49 19.5q75 30 82 30q15 0 22 -21q17 -50 58.5 -164t55 -151.5t24.5 -81.5l203 830q5 21 39 21h12q30 0 30 -13q0 -5 -1 -8l-232 -921q-5 -21 -35 -21h-30q-29 0 -37 21l-162 425q-63 -24 -68 -24z" />
    <glyph glyph-name="infinity" unicode="&#x221e;" horiz-adv-x="788" 
d="M302.5 145.5q-42.5 -30.5 -102 -30.5t-105.5 47t-46 117.5t46.5 117.5t116.5 47q92 0 186 -116q5 5 30 31t34.5 34t31.5 24q37 27 97 27t103.5 -44.5t43.5 -117.5t-48 -120t-112 -47q-88 0 -185 118q-48 -57 -90.5 -87.5zM512 199q32 -24 71.5 -24t65.5 31.5t26 76.5
t-27 74.5t-70 29.5q-25 0 -53 -17t-45 -34t-51 -54q51 -59 83 -83zM212 175q66 0 149 101q-73 111 -154 111q-43 0 -69.5 -31t-26.5 -76t28.5 -75t72.5 -30z" />
    <glyph glyph-name="integral" unicode="&#x222b;" horiz-adv-x="372" 
d="M30 -95q20 -6 33 -6q49 0 71 47.5t22 142t-7 273t-7 257.5q0 252 150 252q69 0 69 -32t-16 -32q-20 6 -33 6q-49 0 -71 -47.5t-22 -139.5t7 -271.5t7 -261.5q0 -252 -150 -252q-69 0 -69 32t16 32z" />
    <glyph glyph-name="approxequal" unicode="&#x2248;" horiz-adv-x="547" 
d="M86 291q-7 13 -7 20q0 17 40 34.5t83.5 17.5t97.5 -13t73 -13t40 5.5t29 5.5t17 -9t9 -23q0 -18 -40 -35.5t-84 -17.5t-97.5 13t-72.5 13t-40 -5.5t-31 -5.5t-17 13zM79 147q0 17 40 34.5t83.5 17.5t97.5 -13t73 -13t40 5.5t29 5.5t17 -9t9 -23q0 -18 -40 -35.5
t-84 -17.5t-97.5 13t-72.5 13t-40 -5.5t-26 -5.5q-15 0 -22 13t-7 20z" />
    <glyph glyph-name="notequal" unicode="&#x2260;" horiz-adv-x="560" 
d="M94 27q0 9 9 20l48 60h-73q-30 0 -30 30v8q0 30 30 30h127l77 96h-204q-30 0 -30 30v7q0 30 30 30h258l61 75q14 18 37 18h11q25 0 25 -18q0 -10 -8 -19l-45 -56h65q30 0 30 -30v-7q0 -30 -30 -30h-119l-77 -96h196q30 0 30 -30v-8q0 -30 -30 -30h-250l-64 -79
q-14 -18 -37 -18h-11q-26 0 -26 17z" />
    <glyph glyph-name="lessequal" unicode="&#x2264;" horiz-adv-x="566" 
d="M49 323v17q0 25 23 35l411 174q7 3 15 3q20 0 20 -26v-14q0 -26 -23 -35l-356 -145l356 -146q23 -10 23 -35v-14q0 -26 -20 -26q-8 0 -15 3l-411 174q-23 10 -23 35zM48 30v13q0 30 30 30h410q30 0 30 -30v-13q0 -30 -30 -30h-410q-30 0 -30 30z" />
    <glyph glyph-name="greaterequal" unicode="&#x2265;" horiz-adv-x="566" 
d="M68 111q-20 0 -20 26v14q0 25 23 35l356 146l-356 145q-23 9 -23 35v14q0 26 20 26q8 0 15 -3l411 -174q23 -10 23 -35v-17q0 -25 -23 -35l-411 -174q-7 -3 -15 -3zM48 30v13q0 30 30 30h410q30 0 30 -30v-13q0 -30 -30 -30h-410q-30 0 -30 30z" />
    <glyph glyph-name="lozenge" unicode="&#x25ca;" horiz-adv-x="558" 
d="M55 347q0 9 6 20l176 331q11 21 35 21h19q23 0 35 -21l176 -331q6 -11 6 -20t-6 -21l-176 -330q-12 -21 -35 -21h-19q-24 0 -35 21l-176 331q-6 11 -6 20zM281 49l155 298l-155 297l-154 -297z" />
    <glyph glyph-name="fi" unicode="&#xfb01;" horiz-adv-x="563" 
d="M108 20v431h-40q-20 0 -20 30v12q0 30 20 30h40v95q0 86 46 114q39 24 83 24q73 0 73 -30q0 -10 -6 -28.5t-15 -18.5q-2 0 -14 2.5t-33.5 2.5t-35.5 -14.5t-14 -59.5v-87h87q20 0 20 -30v-12q0 -30 -20 -30h-87v-431q0 -22 -40 -22h-4q-40 0 -40 22zM425 649
q-40 0 -40 22v59q0 22 40 22h12q40 0 40 -22v-59q0 -22 -40 -22h-12zM389 20v483q0 22 40 22h4q40 0 40 -22v-483q0 -22 -40 -22h-4q-40 0 -40 22z" />
    <glyph glyph-name="fl" unicode="&#xfb02;" horiz-adv-x="591" 
d="M108 20v431h-40q-20 0 -20 30v12q0 30 20 30h40v95q0 86 46 114q39 24 83 24q73 0 73 -30q0 -10 -6 -28.5t-15 -18.5q-2 0 -14 2.5t-33.5 2.5t-35.5 -14.5t-14 -59.5v-87h87q20 0 20 -30v-12q0 -30 -20 -30h-87v-431q0 -22 -40 -22h-4q-40 0 -40 22zM380 132v598
q0 22 40 22h4q40 0 40 -22v-590q0 -74 54 -74q17 0 29 2.5t14 2.5q9 0 15 -18.5t6 -28.5q0 -30 -73 -30q-50 0 -89.5 30.5t-39.5 107.5z" />
  </font>
</defs>
</svg>
